<?xml version="1.0" encoding="UTF-8"?>
<svg id="_Слой_2" data-name="Слой 2" xmlns="http://www.w3.org/2000/svg" viewBox="0 0 55.65 84.35">
  <defs>
    <style>
      .cls-1 {
        fill: #036f96;
      }
    </style>
  </defs>
  <g id="_Слой_1-2" data-name="Слой 1">
    <g id="_Сгруппировать_10831" data-name="Сгруппировать 10831">
      <path id="_Контур_17" data-name="Контур 17" class="cls-1" d="M33.87,84.34c-9.34-.3-16.66-8.11-16.37-17.44.12-3.87,1.57-7.59,4.11-10.52-1.26,1.65-2.17,3.53-2.7,5.53-.27,1.02-.43,2.06-.48,3.11-.11,2.14.23,4.29.98,6.3.72,1.91,1.81,3.66,3.21,5.15,4.39,4.66,11.16,6.2,17.14,3.91h0c5.04-1.93,8.73-6.32,9.78-11.61.81-4.14-.09-8.42-2.5-11.88-.82-1.21-1.85-2.27-3.02-3.15-1.5-1.12-7.31-3.54-15.19-5.23-4.25-.85-8.35-2.33-12.15-4.41-3.04-1.79-5.82-3.98-8.27-6.53C1.8,30.83,0,21.24,0,21.24c3.03,5.77,7.35,10.75,12.64,14.56,1.86,1.31,3.86,2.61,5.96,3.81,3.89,2.17,7.92,4.07,12.08,5.66,6.78,2.66,13.44,8.11,13.44,8.11,0,0,2.13,1.86,2.82,2.61.7.77,1.34,1.6,1.88,2.49,1.17,1.89,1.96,3.99,2.33,6.18.36,2.18.29,4.41-.21,6.56-1.79,7.69-8.63,13.13-16.52,13.13-.18,0-.37,0-.55-.01ZM33.27,43.15c-3.75-2.18-7.14-4.93-10.06-8.13-2.29-2.68-4.21-5.66-5.69-8.86-4.04-8.52-2.62-18.17-2.62-18.17.98,6.44,3.45,12.56,7.21,17.88,1.33,1.84,2.8,3.73,4.4,5.55,2.97,3.32,6.17,6.42,9.58,9.29,3.83,3.24,7.04,7.16,9.45,11.57-3.77-3.45-7.88-6.5-12.27-9.11ZM37.87,38.87c-3-3.13-5.5-6.7-7.43-10.59-1.47-3.21-2.49-6.6-3.03-10.09-1.54-9.3,2.49-18.19,2.49-18.19-.83,6.46-.15,13.03,2,19.18.77,2.14,1.67,4.35,2.7,6.54,1.94,4.01,4.16,7.88,6.65,11.57,2.79,4.17,4.79,8.82,5.89,13.72-2.67-4.35-5.78-8.42-9.28-12.14ZM45.53,41.85c-.44-1.1-1.01-2.15-1.69-3.12l1.78-4.65c-.67-.1-1.32-.27-1.95-.51-.72-.29-1.42-.64-2.09-1.04.52.16,1.05.27,1.59.31.59.08,1.18,0,1.73-.21,1.18-.65,2.46-1.1,3.79-1.3,1.02-.15,2.06,0,3,.41,0,0,.68-.15,1.8-.31.72-.1,1.44-.11,2.16-.03,0,0-.75.35-1.95,1.02-.75.41-1.46.88-2.14,1.39-.11.72-.48,1.38-1.04,1.85-.85.63-1.78,1.12-2.78,1.47.53.73.85,1.6.92,2.51.02,1.2-.13,2.4-.45,3.56,0,0-.45,1.58-.64,2.58-.11.45-.15.92-.12,1.39,0,0-1.02-3.2-1.93-5.31Z"/>
    </g>
  </g>
</svg>