<?xml version="1.0" encoding="UTF-8"?>
<svg id="Layer_1" data-name="Layer 1" xmlns="http://www.w3.org/2000/svg" viewBox="0 0 545.88 638.51">
  <defs>
    <style>
      .cls-1 {
        fill: #fff;
      }

      .cls-1, .cls-2, .cls-3, .cls-4, .cls-5, .cls-6 {
        fill-rule: evenodd;
      }

      .cls-2 {
        fill: #432100;
      }

      .cls-3 {
        fill: #015cf5;
      }

      .cls-4 {
        fill: #017a34;
      }

      .cls-5 {
        fill: #ed1c24;
      }

      .cls-6 {
        fill: #03a724;
      }
    </style>
  </defs>
  <path class="cls-2" d="M224.81,507.68c1.29,1.23,2.08,2.95,2.02,5.01-.13,4.37-3.96,6.96-8.06,6.96-2.95,0-5.75-.16-7.42-2.59-.56-.07-1.25-.1-1.63-.11-1.61-.06-2.81-.82-4.05-1.73-.26-.19-.95-.73-1.25-.83-2.62-.65-3.75-3.48-3.33-5.89-1.25-.25-2.48-.72-3.48-1.18-1.27-.58-2.62-1.36-3.66-2.38h-.62s-.11-.83-.11-.83c-.64-.85-1.06-1.84-1.11-2.99-.05-1.1.01-2.27.25-3.37-4.81-3.15-5.92-9.47-1.22-14.1l.11-.15c.09-.65.23-1.17.45-1.47.73-1-4.56-3.99-8.72-6.13-1.8-.21-3.27-.99-4.31-2.13l-.18-.08c-.6-.03-1.23-.16-1.88-.39-.96-.35-1.8-.84-2.51-1.45-2.52.4-5.14-.36-6.96-2.51-.1-.11-.19-.23-.28-.34-2.35.13-4.64-.8-6.17-3.13-.51.06-1.03.07-1.56.02-2.12-.2-3.92-1.3-5.06-2.94-2.16.1-4.31-.69-5.93-2.55-.11-.13-.22-.26-.32-.39-3.19.42-5.87-1.18-7.25-3.61-2.95.19-5.8-1.16-7.28-4.04-.02-.03-.04-.07-.05-.1-2.96-.11-5.71-1.67-7.09-4.54-2.32.05-4.65-.7-6.41-2.28-.66-.59-1.2-1.28-1.61-2.03-2.97-.3-5.02-1.93-6.03-4.07-3.39-.07-6.26-2.14-7.03-5.28-3.08-.37-5.77-2.17-6.45-5.37-3.33-.19-6.35-1.94-7.37-5.66-.07-.24-.12-.49-.16-.73-4.21-.16-6.85-3.17-7.21-6.59-.7-.14-1.38-.38-2.02-.72-2.28-1.22-4.08-3.08-4.76-5.25-.82-.14-1.62-.4-2.38-.8-2.49-1.33-3.83-3.9-3.64-6.6-4.15-.83-6.48-3.86-6.6-7.1,0,0-.01,0-.02,0-4.03-1.22-6.65-4.72-6.05-8.61-3.97-1.24-7.75-4.14-7.18-8.83,0-.04,0-.08.02-.12-.42-.16-.81-.33-1.18-.54-2.24-1.24-4.21-2.96-4.88-5.53-.43-1.64-.22-3.26.47-4.67-2.9-.88-5.98-3.23-7.52-5.52-1.23-1.83-1.7-3.97-1.28-5.93-2.92-1.14-5.57-3.45-6.87-6.12-1.14-2.34-1.17-4.97.04-7.11-1.21-.46-2.31-1.1-3.16-1.98-2.95-3.08-3.99-7.66-1.33-11.28.26-.36.55-.68.85-.98-1.36-.32-2.74-.67-3.94-1.12-4.14-1.53-7.32-6.37-6.56-10.81.42-2.42,1.85-4.28,3.84-5.39-2.55-.94-5.21-2.19-6.66-3.84-3.29-3.76-3.77-9.21.03-12.77.5-.46,1.03-.86,1.58-1.18-1.08-.53-2.11-1.1-3.03-1.71-3.81-2.53-5.7-5.86-5.99-10.42-.2-3.14.89-5.79,2.84-7.41-.2-.17-.4-.35-.6-.53-3.48-3.18-5.02-6.49-5.84-11.05-.87-4.87,1.47-8.56,5.28-9.46-4.3-3.87-7.85-8.48-7.32-13.2.33-2.92,1.41-5.73,3.97-7.4.66-.43,1.35-.74,2.06-.95-3.22-3.62-5.52-7.56-5.47-11.5.04-3.36.72-6.92,3.5-9.13.96-.77,2.02-1.24,3.11-1.47-.89-1.08-1.69-2.16-2.34-3.2-1.81-2.9-3.4-6.39-3.38-9.87.02-3.89,2.16-7.28,5.92-8.5,1.42-.46,2.88-.54,4.31-.35-.05-.08-.11-.15-.16-.23-2.36-3.42-4.52-7.51-5.08-11.68-.49-3.67.34-7.44,3.15-10.02,2.64-2.42,6.31-3.05,9.71-2.01,1.26.39,2.43.98,3.49,1.73-1.46-2.53-2.84-5.09-4.01-7.62-1.83-3.92-3.37-8.51-3.38-12.87-.01-3.98,1.36-8.05,5.02-10.1,3.75-2.09,7.99-.97,11.19,1.56,1.88,1.49,3.45,3.43,4.75,5.53-3.29-15.88-4.7-35.57,3.67-49.21,1.77-2.89,4.12-6.08,7.26-7.57,3.85-1.83,7.87-.7,10.51,2.55.82,1.01,1.52,2.26,2.12,3.64C65.31,51.52,101.42,14.52,137.06,0c-30.78,32.3-55.42,86.78-56.11,130.78-.19,11.82.88,24.33,2.12,36.08.6,5.68,1.29,11.36,2.11,17.01,1.97.45,3.61,1.93,4.21,3.99,6.81,23.34,20.32,44.6,36.13,62.88,6.29,7.27,13.02,14.15,20.07,20.68,4.41,4.08,8.92,7.93,13.49,11.82,4.12,3.51,8.62,7.78,11.35,12.51,1.79,3.1,2.59,5.96,2.8,9.51.18,3.04,1.43,7.33,2.47,10.17,1.58,4.34,4.03,9.15,7.53,12.27,3.82,3.4,10.01,3.73,14.64,1.97,2.55-1,5.36-.1,6.87,2.18l21.72-14.41c.82-2.45,2.22-4.43,4.24-5.75-.17-1.57.24-3.22,1.27-4.66.44-1.2.15-6.5.42-7.97s4.64-14.87,4.74-15.03c.46-1.24.3-6.5.4-8.04.74-11.62,1.94-2.04-.26-13.77-1.16-6.19-.51-47.35,3.18-50.37-.13-9.02,2.88-16.36,8.52-21.75-.34-.15-.68-.33-1.01-.56-.28-.19-.54-.39-.78-.6-1.64.39-3.38.17-4.91-.85-.48-.32-.89-.67-1.23-1.05-1.75.3-3.55-.07-5.15-1.52-.47-.42-.84-.87-1.14-1.34-1.84.1-3.65-.52-5.07-2.25-.45-.55-.78-1.12-1.01-1.69-1.63-.48-3.03-1.56-3.83-3.46-.16-.37-.28-.74-.36-1.1-1.47-.91-2.56-2.36-2.8-4.43-.33-2.83,1.11-4.89,3.2-6.12-1.77-2.68-3.03-5.73-3.65-9.1-.38-2.06.31-4.02,1.9-5.39,1.59-1.37,3.62-1.77,5.61-1.09,8.54,2.9,23.55,5.81,32.35,3.13,14.54-4.42,32.03-3.79,39.97,9.51,1.88-2.36,4.77-3.87,8.02-3.87,5.66,0,10.25,4.59,10.25,10.25,0,1.15-.19,2.26-.54,3.29,5.34,1.31,9.71,5.2,12.72,10.04,1.27,2.04,1.17,4.51-.26,6.44-1.42,1.93-3.76,2.75-6.07,2.15-3.43-.86-8.23-.67-11.6.27-1.15.32-2.28.3-3.34-.05-3.18,5.67-12.04,8.06-19.13,10.01-3.5.96-6.85,2.74-8.29,6.25-.46,1.11-.78,2.68-.74,3.99,2.51.81,3.91,3.22,4.41,5.84.29,1.5.38,3.09.38,4.62,0,9.84.41,5.38,1.8,12.59,1.19,6.23,2.8,12.75,3.79,18.03.35,1.85.46,3.83.46,5.72,0,13.97,7.5,3.22,8.53,18.14,2.56,12.27,11.94,4.7,16.11,22.09,1.08,4.52-.02,5.3.29,6.55.97,1.42,1.31,3.05,1.1,4.59,6.1.58,9.18,5,9.68,10.92.07.86.05,2.88.1,4.64l8.95,1.57,3.9,4.99c1.58-1.85,4.13-2.52,6.45-1.61,1.46.57,3.69.92,5.26,1,3.46.17,6.74-.62,9.38-2.97,3.5-3.12,5.95-7.93,7.53-12.27,1.03-2.84,2.29-7.13,2.47-10.17.21-3.55,1.01-6.41,2.8-9.51,2.73-4.73,7.23-9,11.35-12.51,4.57-3.89,9.08-7.74,13.49-11.82,7.05-6.53,13.78-13.41,20.07-20.68,15.81-18.28,29.32-39.53,36.13-62.88.6-2.06,2.24-3.54,4.21-3.99.83-5.65,1.52-11.33,2.11-17.01,1.24-11.76,2.31-24.27,2.12-36.08-.38-24.12-11.48-63.51-18.32-77.18l-.12-.23-.23-.38c-1.24-1.99-2.56-4.23-3.75-6.53-10.02-16.1-30.1-42.46-33.92-46.46,22.11,9.01,48.74,33.07,63.79,52.38,7.5,9.62,11.53,23.5,13.53,38.02.6-1.39,1.3-2.63,2.13-3.64,2.64-3.25,6.66-4.38,10.51-2.55,3.13,1.49,5.49,4.68,7.26,7.57,8.37,13.64,6.96,33.33,3.67,49.21,1.3-2.1,2.87-4.04,4.75-5.53,3.2-2.54,7.44-3.66,11.19-1.56,3.66,2.04,5.03,6.12,5.02,10.1-.01,4.37-1.55,8.95-3.38,12.87-1.18,2.53-2.55,5.08-4.01,7.62,1.06-.75,2.22-1.35,3.49-1.73,3.39-1.04,7.06-.41,9.71,2.01,2.81,2.58,3.64,6.35,3.15,10.02-.55,4.17-2.72,8.26-5.08,11.68-.05.08-.11.15-.16.23,1.43-.19,2.9-.1,4.31.35,3.76,1.21,5.9,4.6,5.92,8.5.02,3.48-1.58,6.97-3.38,9.87-.65,1.05-1.45,2.12-2.34,3.2,1.09.23,2.15.7,3.11,1.47,2.78,2.21,3.46,5.78,3.5,9.13.04,3.95-2.25,7.89-5.47,11.5.71.2,1.4.52,2.06.95,2.55,1.67,3.64,4.48,3.97,7.4.53,4.72-3.01,9.33-7.32,13.2,3.81.9,6.15,4.59,5.28,9.46-.82,4.56-2.36,7.87-5.84,11.05-.19.18-.4.35-.6.53,1.95,1.62,3.04,4.27,2.84,7.41-.29,4.56-2.18,7.89-5.99,10.42-.92.61-1.94,1.18-3.03,1.71.56.33,1.09.72,1.58,1.18,3.81,3.56,3.32,9.01.03,12.77-1.45,1.65-4.11,2.9-6.66,3.84,1.99,1.11,3.43,2.97,3.84,5.39.76,4.43-2.42,9.27-6.56,10.81-1.19.44-2.58.8-3.94,1.12.3.3.58.62.85.98,2.66,3.62,1.62,8.2-1.33,11.28-.85.88-1.95,1.52-3.16,1.98,1.2,2.14,1.18,4.77.04,7.11-1.3,2.67-3.95,4.97-6.87,6.12.42,1.97-.05,4.1-1.28,5.93-1.54,2.28-4.62,4.64-7.52,5.52.69,1.41.9,3.02.47,4.67-.67,2.58-2.64,4.29-4.88,5.53-.37.2-.76.38-1.18.54,0,.04.01.08.02.12.57,4.69-3.21,7.58-7.18,8.83.6,3.88-2.01,7.39-6.05,8.61,0,0-.01,0-.02,0-.12,3.24-2.45,6.27-6.6,7.1.19,2.71-1.15,5.27-3.64,6.6-.76.41-1.56.67-2.38.8-.67,2.17-2.47,4.04-4.76,5.25-.64.34-1.32.58-2.02.72-.36,3.43-2.99,6.44-7.21,6.59-.04.24-.1.49-.16.73-1.02,3.73-4.04,5.47-7.37,5.66-.68,3.21-3.36,5.01-6.45,5.37-.77,3.14-3.64,5.21-7.03,5.28-1.01,2.14-3.06,3.77-6.03,4.07-.41.75-.95,1.44-1.61,2.03-1.76,1.59-4.09,2.33-6.41,2.28-1.38,2.88-4.14,4.43-7.09,4.54-.02.03-.03.07-.05.1-1.48,2.88-4.34,4.23-7.28,4.04-1.38,2.43-4.05,4.04-7.25,3.61-.1.13-.21.26-.32.39-1.62,1.86-3.77,2.65-5.93,2.55-1.14,1.64-2.95,2.74-5.06,2.94-.53.05-1.05.04-1.56-.02-1.53,2.33-3.82,3.26-6.17,3.13-.09.12-.18.23-.28.34-1.82,2.15-4.44,2.91-6.96,2.51-.71.61-1.56,1.1-2.52,1.45-.33.12-.66.21-.98.28h0s-.69.32-1.75.84c-.73.59-1.6,1.04-2.61,1.3-4.21,2.15-9.85,5.28-9.09,6.32.54.54.77,1.06,1.19,1.62,4.69,4.63,3.59,10.95-1.22,14.1.24,1.1.3,2.27.25,3.37-.07,1.55-.81,2.81-1.86,3.83h0s0,0,0,0c-1.04,1.01-2.37,1.79-3.64,2.37-1,.46-2.23.93-3.48,1.18.42,2.41-.7,5.24-3.33,5.89-.3.1-.99.64-1.25.83-1.24.92-2.44,1.68-4.05,1.73-.38.01-1.08.04-1.63.11-1.67,2.44-4.47,2.59-7.42,2.59-4.09,0-7.93-2.59-8.06-6.96-.05-1.67.47-3.11,1.35-4.26l.78-13.4,8.6-15.22-19.64,13.07-56.32-.97-42.68-17.52,11.66,20.64.73,12.65h0Z"/>
  <path class="cls-1" d="M74.91,130.23c.38-24.02,7.41-57.49,21.16-79.72,13.76-22.22,6.85-27.37-18.34,4.94-25.19,32.31-11.02,127.69.62,148.85,0,0,1.11,3.17,2.88,2.13.33-.19,2.07-1.46.77-6.81-3.4-13.95-7.39-49.89-7.09-69.39h0ZM77.98,210.58s-13.52-26.24-16.55-54.3c-3.03-28.06-2.02-85.99-16.75-61.97-14.74,24.02,3.63,76.7,19.98,103.15l9.64,16.15s2.35,3.05,3.99,1.64c1.64-1.41-.31-4.67-.31-4.67h0ZM73.57,218.68s-33.77-55.97-40.38-71.32c-6.61-15.35-17.48-10.63-9.45,6.61,8.03,17.24,46.05,69.67,46.05,69.67,0,0,2.9,3.29,5.04,1.45,2.14-1.84-1.26-6.41-1.26-6.41h0ZM69.7,229.36s-43.4-50.06-48.04-57.93c-4.64-7.87-15.95-3.63-5.65,11.3,10.3,14.94,51.88,54.3,51.88,54.3,0,0,3.68,1.97,4.48-.78.8-2.75-2.66-6.89-2.66-6.89h0ZM66.88,242.65s-41.68-35.81-48.26-44.97c-6.58-9.16-16.32-7.28-9.16,4.23,7.16,11.51,54.13,46.26,54.13,46.26,0,0,4.46,3.64,5.87.82,1.41-2.82-2.58-6.34-2.58-6.34h0ZM65.12,257.33l-50.84-39.69s-8.1-9.51-8.22,1.17c-.12,10.69,33.7,28.3,47.44,38.98,13.74,10.69,14.33,5.17,14.33,5.17,0,0,1.17-3.05-2.7-5.64h0ZM63.48,270.83l-51.2-32.64s-5.99-6.22-6.81,1.06c-.82,7.28,24.07,21.96,49.67,34.76,0,0,11.04,6.11,12.8,3.64,1.76-2.47-.59-4.93-4.46-6.81h0ZM65.69,286.02l-51.71-26.55s-7.61-5.28-6.52.78c1.09,6.06,3.26,9.32,19.41,16.46,16.15,7.14,35.72,15.22,35.72,15.22,0,0,5.44,2.17,5.75-.78.31-2.95-.16-3.42-2.64-5.12h0ZM66.2,298.43l-49.32-20.2s-6.11-3.88-5.75,1.64c.35,5.52,3.76,6.81,15.15,11.04,11.39,4.23,39.1,13.27,39.1,13.27,0,0,3.64,1.41,4.34-1.41.7-2.82-3.52-4.34-3.52-4.34h0ZM65.5,309.58s-38.63-9.28-43.21-11.86c-4.58-2.58-8.45,1.06-5.17,4.81,3.29,3.76,40.39,11.51,48.03,12.56,7.63,1.06,7.05-.23,7.05-1.64s-1.76-3.29-6.69-3.87h0ZM71.37,322.62s-30.06-3.29-41.8-6.93c-11.74-3.64-8.57,4.11-5.4,5.28,3.17,1.17,26.65,6.11,39.45,6.58,12.8.47,12.21,0,12.45-1.41.24-1.41-.12-3.41-4.7-3.52h0ZM74.3,332.95s-34.41-.82-39.45-2c-5.05-1.17-6.81,2-4.11,4.81,2.7,2.82,30.77,2.47,37.11,2.47s11.04.35,11.27-2c.24-2.35-.94-3.29-4.81-3.29h0ZM79.82,342.11s-31.94,2.58-40.63,1.53c-8.69-1.06-3.17,6.11,1.06,6.34,4.23.23,32.06-1.41,36.75-2.35,4.7-.94,6.46-1.53,6.11-2.82-.35-1.29-1.06-2.7-3.29-2.7h0ZM83.34,351.39s-26.3,3.76-36.28,3.41c-9.98-.35-2,5.99.47,6.22,2.47.23,29.36-2.82,35.34-4.7,5.99-1.88,4.81-2.94,4.46-3.88-.35-.94-1.64-1.53-3.99-1.06h0ZM87.69,359.72s-26.54,6.11-30.65,6.69c-4.11.59-9.75,2.23-4.46,5.17,5.28,2.94,27.59-4.58,31-5.52,3.41-.94,9.28-2.23,8.22-4.46-1.06-2.23-4.11-1.88-4.11-1.88h0ZM92.27,367s-27.83,8.81-32.06,9.04c-4.23.24-5.28,3.29.12,4.7,5.4,1.41,23.72-6.11,27.12-7.51,3.41-1.41,9.28-2.82,9.04-5.05-.24-2.23-4.23-1.17-4.23-1.17h0ZM96.61,372.99s-24.07,9.39-28.3,10.45c-4.23,1.06-6.34,4.58-2.47,5.75,3.88,1.17,26.66-9.39,30.88-11.39,4.23-2,4.11-3.99,4.11-3.99,0,0-.94-2.82-4.23-.82h0ZM99.9,378.98s-21.14,11.04-26.3,12.45c-5.17,1.41-4.7,5.28.35,4.81,5.05-.47,24.78-11.16,27.01-12.8,2.23-1.64,4.82-3.05,3.41-4.34-1.41-1.29-4.46-.12-4.46-.12h0ZM104.72,384.73s-18.08,11.51-23.48,13.39c-5.4,1.88-6.58,6.46-1.29,5.28,5.28-1.17,23.37-11.27,26.19-13.74,2.82-2.47,5.28-3.99,3.52-5.28-1.76-1.29-4.93.35-4.93.35h0ZM109.3,391.08s-17.03,10.69-22.08,12.8c-5.05,2.11-6.46,3.64-2.94,5.52,3.52,1.88,17.61-7.63,19.61-8.92,2-1.29,12.45-8.1,11.16-9.86-1.29-1.76-3.64-1.41-5.75.47h0ZM116.22,396.83s-18.32,13.03-23.25,14.33c-4.93,1.29-4.58,5.4-1.06,4.81,3.52-.59,25.83-13.97,28.18-16.44,2.35-2.47.94-4.58-.23-4.58s-3.64,1.88-3.64,1.88h0ZM122.45,401.88s-19.26,13.74-23.37,15.38c-4.11,1.64-3.41,6.69,2,4.81,5.4-1.88,21.61-14.91,23.84-16.79,2.23-1.88,2.46-3.56,1.61-4.25-.85-.7-3.24-.23-4.08.85h0ZM128.23,406.66s-16.29,13.82-20.92,16.21c-4.63,2.39-4.32,5.79-.23,4.86,4.09-.93,20.15-15.06,22.78-16.91,2.63-1.85,4.71-3.86,2.86-4.79-1.85-.93-2.01-1.24-4.48.62h0ZM134.71,410.83s-20.15,16.99-22.47,18.3c-2.32,1.31-2.78,4.17,0,3.94,2.78-.23,21.46-15.75,23.16-17.6,1.7-1.85,4.94-2.93,2.93-4.86-2.01-1.93-3.63.23-3.63.23h0ZM139.19,415.85s-18.68,15.6-20.69,16.91c-2.01,1.31-3.09,5.4,1.93,4.25,5.02-1.16,22.7-19.3,22.7-19.3,0,0,2.16-3.55.85-4.09-1.31-.54-3.63.23-4.79,2.24h0ZM145.26,418.62s-14.96,15.06-20.28,18.07c-5.32,3.01-.2,6.22,3.01,4.12,3.21-2.11,18.07-15.36,19.77-17.77,1.71-2.41,4.32-4.72,1.61-6.02-2.71-1.31-4.12,1.61-4.12,1.61h0ZM151.49,421.13s-14.35,17.16-18.47,19.47c-4.12,2.31-1.91,6.62,1.71,5.12,3.61-1.51,19.97-20.98,19.97-20.98,0,0,2.01-4.02,0-4.42-2.01-.4-3.21.8-3.21.8h0ZM156.91,425.34s-15.26,18.37-17.77,20.58c-2.51,2.21-.9,5.32,2.01,3.92,2.91-1.41,17.77-20.38,18.87-21.98,1.1-1.61,2.41-4.12.5-4.52-1.91-.4-2.41.2-3.61,2.01h0ZM162.83,428.15s-13.45,19.27-16.26,21.48c-2.81,2.21-1.41,5.32,1.51,3.71,2.91-1.61,15.96-19.27,17.37-22.28,1.41-3.01,1.91-4.32.2-4.72-1.71-.4-2.81,1.81-2.81,1.81h0ZM168.35,430.16s-13.15,19.17-15.66,22.18c-2.51,3.01.2,5.92,2.81,3.41,2.61-2.51,14.45-21.48,15.36-23.19.9-1.71,1-5.32-2.51-2.41h0ZM174.07,431.87s-11.74,20.78-14.25,22.89c-2.51,2.11-2.31,7.03,2.11,3.91s14.05-20.88,14.75-23.09c.7-2.21,2.11-7.93-2.61-3.71h0ZM179.69,434.18s-10.44,20.78-13.35,23.99c-2.91,3.21-.9,6.32,2.21,3.51,3.11-2.81,13.45-22.18,14.15-24.39.7-2.21.5-6.42-3.01-3.11h0ZM185.51,435.88s-10.34,22.79-13.35,25.7c-3.01,2.91-.2,5.42,2.21,3.41,2.41-2.01,13.25-23.99,13.55-25.9.3-1.91.4-5.62-2.41-3.21h0ZM188.32,443.81s-9.13,17.06-10.04,18.97c-.9,1.91-2.21,3.81,0,4.62,2.21.8,9.84-14.25,10.64-16.46.8-2.21,3.11-10.34-.6-7.13h0ZM191.04,450.94l-7.03,14.05s-3.71,5.02,0,4.72c3.71-.3,9.84-15.06,9.84-15.06l-2.81-3.71h0ZM195.45,459.17l-4.52,7.73s-2.81,5.92,1.4,3.71c4.22-2.21,6.83-10.94,6.83-10.94l-3.71-.5h0ZM84.53,216.18c-1.75,5.07,3.71,13.86,6.2,17.7,2.49,3.83,10.6,14.79,11.96,11.11.72-1.93-5.03-7.35-9.21-14.44-4.67-7.92-7.92-17.34-8.95-14.36h0ZM97.03,255.68c-3.61-2.03,3.78-8.98-6.96-15.55-2.3-1.41-4.27-6.4-8.29-9.15-2.82-1.92-7.53,14.42,2.88,22.55,2.21,1.73,12.35,9.34,13.44,3.58.19-1.03-.15-.91-1.07-1.42h0ZM95.21,275.83c-1.85-7.61-1.83-2.7-1.53-9.75.02-.43-5.12-2.52-6.83-3.55-3.22-1.94-5.88-5.3-8.1-8.72-.68-1.05-8.26,1.88-4.03,12.01,4.68,11.21,21.93,15.97,20.49,10.01h0ZM91.19,287.11c-4.24-6.95-8.49-4.66-14.17-8.39-3.43-2.26-7.41,10.99,7.22,21.34.05.03,15.1,2.91,11.19-2.05-3.07-3.9-3.65-9.94-4.24-10.9h0ZM93.54,310.13c.21,6.41,13.41,11.15-3.77,10.56-10.67-.36-17.59-21.31-6.35-16.78.43.17,7.19,4.54,9.55,5.6.33.15.56.29.57.62h0ZM96.91,327.38c-4.8-1.02-5.82.08-10.34-3.06-2.84-1.97-3.39,2.09-2.33,5.2,2.13,6.25,8.1,8.36,14.2,7.13,8.42-1.7,2.11-3.53,1.05-5.42-.37-.66-2.09-3.74-2.58-3.85h0ZM107.22,344.12c-7.82-5.16-1.94-3.91-13.83-2.64-9.74,1.04-1.19,7.69,3.3,7.97,2.85.18,10.85-.9,10.68-4.82l-.15-.52h0ZM104.56,353.96c-8.23-5.5-11.98,10.09-.45,10.7,7.23.38,7.58-1.91,10.5-5.25.12-.14-8.9-4.68-10.05-5.45h0ZM123.76,373.41c-.8-.97-11.7-5.92-14.14-5.33-5.9,1.42-2.83,12.32,10.13,10.32.91-.14,5.15-3.59,4-4.99h0ZM132.38,384.32c-2.59-.69-5.66-.86-8.02-2.53-3.23-2.3-7.99,4.11-2.21,8.37,1.63,1.2,7.88,2.74,9.2-.32.63-1.47,1.86-5.3,1.03-5.52h0ZM139.61,390.25c1.29,1.35.49,4.19-1.77,6.35-2.26,2.15-5.14,2.8-6.43,1.45-1.29-1.35-.49-4.19,1.77-6.35,2.26-2.15,5.14-2.8,6.43-1.45h0ZM145.74,395.71c1.3,1.19.73,3.91-1.26,6.08-1.99,2.17-4.66,2.96-5.95,1.77-1.3-1.19-.73-3.91,1.26-6.08,1.99-2.17,4.66-2.96,5.95-1.77h0ZM151.88,401.22c1.29,1.03.93,3.62-.79,5.77-1.73,2.16-4.17,3.07-5.46,2.04-1.29-1.03-.94-3.62.79-5.77,1.73-2.16,4.17-3.07,5.46-2.04h0ZM165.82,409.05c1.27.88,1.1,3.31-.37,5.44-1.47,2.12-3.69,3.13-4.96,2.25-1.27-.88-1.1-3.31.37-5.44,1.47-2.12,3.69-3.13,4.96-2.25h0ZM159.02,405.48c1.27.88,1.1,3.31-.37,5.44-1.47,2.12-3.69,3.13-4.96,2.25-1.27-.88-1.1-3.31.37-5.44,1.47-2.12,3.69-3.13,4.96-2.25h0ZM172.11,412.92c1.23.74,1.23,3.01,0,5.07-1.23,2.06-3.23,3.14-4.46,2.4-1.23-.74-1.23-3.01,0-5.07,1.23-2.06,3.23-3.14,4.46-2.4h0ZM178.41,416.41c1.18.6,1.33,2.7.32,4.68-1.01,1.98-2.78,3.1-3.97,2.5-1.18-.6-1.33-2.7-.32-4.68,1.01-1.98,2.78-3.1,3.97-2.5h0ZM184.75,419.65c1.12.48,1.39,2.39.59,4.27-.8,1.88-2.36,3.02-3.48,2.54-1.12-.48-1.39-2.39-.59-4.27.8-1.88,2.36-3.02,3.48-2.54h0ZM190.96,421.75c1.05.37,1.41,2.09.8,3.85-.61,1.76-1.96,2.89-3.01,2.53-1.05-.37-1.41-2.09-.8-3.85.61-1.76,1.96-2.89,3.01-2.53h0ZM146.13,379.45c1.12,1.11.52,3.54-1.34,5.42-1.86,1.88-4.29,2.5-5.41,1.39-1.12-1.11-.52-3.54,1.34-5.42,1.86-1.88,4.29-2.5,5.41-1.39h0ZM151.48,384.48c1.17.98.79,3.36-.85,5.33-1.64,1.96-3.92,2.76-5.09,1.78-1.17-.98-.79-3.36.85-5.33,1.64-1.96,3.92-2.76,5.09-1.78h0ZM156.82,389.55c1.21.85,1.04,3.17-.38,5.19-1.42,2.02-3.54,2.97-4.75,2.13-1.21-.85-1.04-3.17.38-5.19,1.42-2.02,3.54-2.97,4.75-2.13h0ZM162.54,394.29c1.23.71,1.25,2.96.06,5.01-1.19,2.05-3.16,3.14-4.38,2.43s-1.25-2.96-.06-5.01c1.19-2.05,3.16-3.14,4.38-2.43h0ZM168.66,398.7c1.23.58,1.44,2.73.47,4.79-.98,2.06-2.77,3.27-4,2.68-1.23-.58-1.44-2.73-.47-4.79.98-2.06,2.77-3.27,4-2.68h0ZM174.46,402.06c1.23.46,1.6,2.49.83,4.55-.77,2.05-2.38,3.35-3.61,2.89-1.23-.46-1.6-2.49-.83-4.55.77-2.06,2.38-3.35,3.61-2.89h0ZM180.59,405.44c1.16.48,1.46,2.44.66,4.38-.8,1.95-2.38,3.14-3.54,2.66-1.16-.48-1.46-2.44-.66-4.38.8-1.95,2.38-3.14,3.54-2.66h0ZM186.43,408.35c1.14.37,1.57,2.22.96,4.13-.61,1.91-2.04,3.17-3.18,2.8-1.14-.37-1.57-2.22-.96-4.13.62-1.92,2.04-3.17,3.18-2.8h0ZM192.41,410.87c1.11.28,1.63,2.02,1.15,3.88s-1.76,3.14-2.87,2.85c-1.11-.28-1.63-2.02-1.15-3.88.48-1.86,1.76-3.14,2.87-2.85h0ZM193.27,399.93c1,.28,1.46,2.02,1.03,3.88-.43,1.86-1.58,3.14-2.57,2.85-1-.28-1.46-2.02-1.03-3.88.43-1.86,1.58-3.14,2.57-2.85h0ZM188.24,396.85c1.04.44,1.31,2.38.6,4.34-.71,1.96-2.13,3.18-3.17,2.74-1.04-.44-1.31-2.38-.6-4.34.71-1.96,2.13-3.18,3.17-2.74h0ZM183.3,393.87c1.06.61,1.09,2.74.06,4.74-1.02,2.01-2.71,3.14-3.77,2.53-1.06-.61-1.09-2.74-.06-4.74,1.02-2.01,2.71-3.14,3.77-2.53h0ZM178.43,391.01c1.05.79.8,3.07-.56,5.07-1.36,2.01-3.31,2.99-4.36,2.2-1.05-.79-.8-3.07.56-5.07,1.36-2.01,3.31-2.99,4.36-2.2h0ZM173.63,388.28c1.01.98.44,3.36-1.27,5.32-1.71,1.96-3.92,2.74-4.93,1.76-1.01-.98-.44-3.37,1.27-5.32,1.71-1.96,3.92-2.74,4.93-1.76h0ZM169.14,383.76c.94,1.17.03,3.62-2.04,5.46-2.07,1.84-4.51,2.39-5.45,1.22-.94-1.17-.03-3.62,2.04-5.46,2.07-1.84,4.51-2.39,5.45-1.22h0ZM164.36,379.43c.87,1.28-.28,3.72-2.55,5.44-2.28,1.72-4.82,2.07-5.69.79-.87-1.28.28-3.72,2.55-5.44,2.28-1.72,4.82-2.07,5.69-.79h0ZM159.56,375.12c.78,1.39-.59,3.79-3.07,5.36-2.48,1.57-5.12,1.72-5.9.33-.78-1.39.59-3.79,3.07-5.36,2.48-1.57,5.12-1.72,5.9-.33h0ZM155.34,370.32c.68,1.49-.93,3.83-3.6,5.23-2.67,1.4-5.39,1.33-6.08-.16-.68-1.49.93-3.83,3.6-5.23,2.67-1.4,5.39-1.33,6.08.15h0ZM150.75,364.95c.57,1.58-1.27,3.84-4.12,5.06-2.85,1.21-5.63.91-6.21-.67-.57-1.58,1.27-3.84,4.12-5.06,2.85-1.21,5.63-.91,6.21.67h0ZM138.64,295.6c1.46-1.38,6.51,1.58,11.28,6.61,4.77,5.04,7.45,10.24,5.99,11.62-1.46,1.38-6.51-1.58-11.28-6.61-4.77-5.03-7.45-10.24-5.99-11.62h0ZM138.62,312.82c.92-1.4,5.6.04,10.43,3.23,4.84,3.19,8.01,6.91,7.09,8.31-.92,1.4-5.6-.04-10.43-3.23-4.84-3.19-8.01-6.91-7.09-8.31h0ZM139.7,326.78c.57-1.37,4.86-.9,9.59,1.05,4.73,1.95,8.1,4.65,7.54,6.02-.57,1.37-4.86.9-9.59-1.05-4.73-1.95-8.1-4.65-7.54-6.02h0ZM143.3,338.51c.25-1.21,3.84-1.51,8.03-.65,4.19.85,7.38,2.53,7.13,3.74-.25,1.21-3.84,1.51-8.03.65-4.19-.85-7.38-2.53-7.13-3.74h0ZM146.44,347.91c.09-1.24,3.62-1.99,7.88-1.68,4.26.31,7.64,1.56,7.55,2.79-.09,1.24-3.62,1.99-7.88,1.68-4.26-.31-7.64-1.56-7.55-2.79h0ZM151.54,357.1c-.13-1.05,2.71-2.26,6.35-2.7,3.63-.44,6.68.06,6.81,1.11.13,1.05-2.71,2.26-6.35,2.7-3.63.44-6.68-.06-6.81-1.11h0ZM156,364.56c-.28-.89,1.99-2.39,5.06-3.35,3.07-.96,5.79-1.01,6.07-.12.28.89-1.99,2.39-5.06,3.35-3.07.96-5.79,1.01-6.07.12h0ZM161.46,370.35c-.38-.71,1.32-2.34,3.78-3.64,2.46-1.3,4.76-1.77,5.14-1.05.38.71-1.31,2.34-3.78,3.64-2.46,1.3-4.76,1.77-5.14,1.06h0ZM166.66,375.22c-.42-.53.73-2.14,2.58-3.59,1.84-1.45,3.68-2.19,4.1-1.66.42.53-.73,2.14-2.58,3.59-1.84,1.45-3.68,2.19-4.1,1.66h0ZM170.69,378.68c-.42-.45.49-1.97,2.03-3.41,1.54-1.44,3.12-2.24,3.54-1.79.42.45-.49,1.97-2.03,3.41-1.54,1.44-3.12,2.24-3.54,1.79h0ZM174.89,381.84c-.37-.34.27-1.65,1.43-2.93s2.4-2.05,2.77-1.71c.37.34-.27,1.65-1.43,2.93-1.16,1.28-2.4,2.05-2.77,1.71h0ZM179.31,384.96c-.39-.3.12-1.64,1.15-2.99,1.03-1.35,2.18-2.21,2.57-1.91.39.3-.12,1.64-1.15,2.99-1.03,1.35-2.18,2.21-2.57,1.91h0ZM184.59,388.81c-.47-.15-.43-1.59.1-3.2.52-1.62,1.33-2.81,1.8-2.65.47.15.43,1.59-.1,3.2-.52,1.62-1.33,2.81-1.8,2.65h0ZM188.61,391.23c-.48-.11-.57-1.54-.19-3.2.37-1.66,1.07-2.91,1.55-2.81.48.11.57,1.54.19,3.2-.37,1.66-1.07,2.91-1.55,2.81h0ZM192.76,393.24c-.49-.07-.7-1.48-.48-3.17.22-1.69.8-3,1.29-2.93.49.06.7,1.48.48,3.17-.22,1.69-.8,3-1.29,2.93h0ZM196.77,394.96c-.49-.05-.75-1.46-.58-3.15.17-1.69.71-3.02,1.2-2.97.49.05.75,1.46.58,3.15-.17,1.69-.71,3.02-1.2,2.97h0ZM200.59,397.08c-.49-.05-.75-1.46-.59-3.15.17-1.69.7-3.02,1.19-2.98.49.05.75,1.46.59,3.15-.17,1.69-.7,3.02-1.19,2.98h0ZM113.91,260.97c-2.33-1.82-8.71-12.75-11.2-8.5-1.91,3.26,5.28,12.41,9.15,13.27,3.31.74,4.71-2.68,2.05-4.76h0ZM110.41,272.69c-3.76-5.76-5.14-5.89-9.03-10.21-1.3-1.45-2.15,9.45,1.48,14.73,2.04,2.96,4.59,4.64,8.22,4.64,0-3.34-.06-1.42-.64-5.32-.16-1.09.1-3.63-.04-3.84h0ZM108.82,289.18c-.27-2.22-9.98-9.49-9.98-2.09,0,5.74,1.08,10.37,5.75,13.49.36.24,9.24,2.61,6.5-.86-2.42-3.07-2.16-9.63-2.27-10.54h0ZM100.89,305.81c-2.58,1.23.95,15.37,11.05,13.82,3.94-.6-1.36-6.9-.97-9.58-2.53-.48-9.15-4.69-10.08-4.24h0ZM116.54,331.01c-3.08-.64.05-5.15-5.74-6.32-1.15-.23-7.6-1.83-7.75-.34-.37,3.91,5.04,10.38,8.72,11.48,10.71,3.2,7.21-4.32,4.76-4.82h0ZM119.53,346.32c-.61-1.84-1.97-3.63-3.95-3.9-7.7-1.05-5.39,3.65-2.26,7.92,3.88,5.29,12.31,4.19,12.25,3.48-.51-6.18-4.32-2.29-6.04-7.5h0ZM129.48,363.75c-1.92-1.43-7.14-7.11-8.82-3.07-.97,2.34.57,5,2.5,6.46,2.35,1.77,9.25,3.39,10.68-.08,1.34-3.24-3.89-2.96-4.36-3.31h0ZM137.54,373.17c-3.01,1.23-8.48-3.74-8.25,2,.07,1.83,7.47,6.69,11.28,2.45,1.56-1.74,2.28-1.51.31-4.54,0,0-2.77-.14-3.34.1h0ZM133.17,281.97c-4.82-3.05-9.03-11.76-12.22-13.29-2.82-1.35-4.98-2.73-3.2,3.27.32,1.08,14.78,23.09,17.24,13.73.48-1.83-1.63-3.59-1.82-3.71h0ZM131.03,295.82c-2.76-3.17.47-1.62-4.19-6.27-1.31-1.31-8.82-7.66-10.04-4.92-2.14,4.79-4.63,5.2.9,11.87,2.81,3.38,6.66,4.8,10.94,5.15,5.62.46,5.09-.63,2.78-5.69l-.39-.14h0ZM132.41,313.75c-3.85-1.99.77-4.13-10.33-8.84-7.45-3.16-5.71,2.36-4.59,7.29,1.85,8.13,18.34,9.73,15.64,2.17-.07-.19-.53-.52-.73-.62h0ZM134.9,329.46c-3.52.16-.17-4.28-6.3-4.15-1.39.03-8.45-1.45-8.62-.13-.49,3.79,2.24,6.29,5.6,7.7,2.52,1.07,15.57,2.08,9.96-3.43-.25-.24-.29-.02-.63,0h0ZM140.03,344.89c-2.16.19-5.99-8.36-14.06-6.12-2.91.81-4.31,9.66,8.42,9.66,2.43,0,8.58.25,6.04-3.66l-.4.13h0ZM133.53,354.47c-2.61,1.91.3,5.1,4.37,7.23,5.75,3.01,15.38-3.82,6.84-5.24-2.73-.46-7.99-4.34-11.21-1.99h0ZM206,388.57s-2.28-5.41-1.85-8.83c0,0-33.19-17.11-42.21-57.82,0,0-6.56,39.62,44.06,66.65h0ZM208.77,380.34l-.7-16.35,4.67-15.18h20.32s-16.81,39-16.81,39l-7.47-7.47h0ZM199.9,370.54l6.31-25.92-6.54-10.04s-11.91,4.67-20.55-3.04-11.68-22.42-11.91-26.39c-.23-3.97-1.17-8.64-12.14-17.98-10.98-9.34-56.34-46.26-71.48-98.15,0,0,1.23,38.61,50.03,87.4,14.53,14.53,23.54,23.76,27.59,32.06,9.55,19.58.83,29.81,38.69,62.06h0ZM470.38,130.23c-.38-24.02-7.41-57.49-21.16-79.72-13.76-22.22-6.85-27.37,18.34,4.94,25.19,32.31,11.02,127.69-.62,148.85,0,0-1.11,3.17-2.88,2.13-.33-.19-2.07-1.46-.77-6.81,3.4-13.95,7.39-49.89,7.08-69.39h0ZM467.31,210.58s13.52-26.24,16.55-54.3c3.03-28.06,2.02-85.99,16.75-61.97,14.74,24.02-3.63,76.7-19.98,103.15l-9.64,16.15s-2.35,3.05-3.99,1.64c-1.64-1.41.31-4.67.31-4.67h0ZM471.72,218.68s33.77-55.97,40.38-71.32c6.61-15.35,17.48-10.63,9.45,6.61-8.03,17.24-46.05,69.67-46.05,69.67,0,0-2.9,3.29-5.04,1.45-2.14-1.84,1.26-6.41,1.26-6.41h0ZM475.59,229.36s43.4-50.06,48.04-57.93c4.64-7.87,15.95-3.63,5.65,11.3-10.3,14.94-51.88,54.3-51.88,54.3,0,0-3.68,1.97-4.48-.78-.8-2.75,2.66-6.89,2.66-6.89h0ZM478.41,242.65s41.68-35.81,48.26-44.97c6.58-9.16,16.32-7.28,9.16,4.23-7.16,11.51-54.13,46.26-54.13,46.26,0,0-4.46,3.64-5.87.82-1.41-2.82,2.58-6.34,2.58-6.34h0ZM480.17,257.33l50.84-39.69s8.1-9.51,8.22,1.17c.12,10.69-33.7,28.3-47.44,38.98-13.74,10.69-14.33,5.17-14.33,5.17,0,0-1.17-3.05,2.7-5.64h0ZM481.82,270.83l51.2-32.64s5.99-6.22,6.81,1.06c.82,7.28-24.07,21.96-49.67,34.76,0,0-11.04,6.11-12.8,3.64-1.76-2.47.59-4.93,4.46-6.81h0ZM479.61,286.02l51.71-26.55s7.61-5.28,6.52.78c-1.09,6.06-3.26,9.32-19.41,16.46-16.15,7.14-35.72,15.22-35.72,15.22,0,0-5.44,2.17-5.75-.78-.31-2.95.16-3.42,2.64-5.12h0ZM479.09,298.43l49.32-20.2s6.11-3.88,5.75,1.64c-.35,5.52-3.76,6.81-15.15,11.04-11.39,4.23-39.1,13.27-39.1,13.27,0,0-3.64,1.41-4.34-1.41-.7-2.82,3.52-4.34,3.52-4.34h0ZM479.8,309.58s38.63-9.28,43.21-11.86c4.58-2.58,8.45,1.06,5.17,4.81-3.29,3.76-40.39,11.51-48.03,12.56-7.63,1.06-7.05-.23-7.05-1.64s1.76-3.29,6.69-3.87h0ZM473.93,322.62s30.06-3.29,41.8-6.93c11.74-3.64,8.57,4.11,5.4,5.28-3.17,1.17-26.65,6.11-39.45,6.58-12.8.47-12.21,0-12.45-1.41-.23-1.41.12-3.41,4.7-3.52h0ZM470.99,332.95s34.41-.82,39.45-2c5.05-1.17,6.81,2,4.11,4.81-2.7,2.82-30.77,2.47-37.11,2.47s-11.04.35-11.27-2c-.24-2.35.94-3.29,4.81-3.29h0ZM465.47,342.11s31.94,2.58,40.63,1.53c8.69-1.06,3.17,6.11-1.06,6.34-4.23.23-32.06-1.41-36.75-2.35-4.7-.94-6.46-1.53-6.11-2.82.35-1.29,1.06-2.7,3.29-2.7h0ZM461.95,351.39s26.3,3.76,36.28,3.41c9.98-.35,2,5.99-.47,6.22-2.47.23-29.36-2.82-35.34-4.7-5.99-1.88-4.81-2.94-4.46-3.88.35-.94,1.64-1.53,3.99-1.06h0ZM457.6,359.72s26.54,6.11,30.65,6.69c4.11.59,9.75,2.23,4.46,5.17-5.28,2.94-27.59-4.58-31-5.52-3.41-.94-9.28-2.23-8.22-4.46,1.06-2.23,4.11-1.88,4.11-1.88h0ZM453.03,367s27.83,8.81,32.06,9.04c4.23.24,5.28,3.29-.12,4.7-5.4,1.41-23.72-6.11-27.12-7.51-3.41-1.41-9.28-2.82-9.04-5.05.24-2.23,4.23-1.17,4.23-1.17h0ZM448.68,372.99s24.07,9.39,28.3,10.45c4.23,1.06,6.34,4.58,2.47,5.75-3.87,1.17-26.65-9.39-30.88-11.39-4.23-2-4.11-3.99-4.11-3.99,0,0,.94-2.82,4.23-.82h0ZM445.39,378.98s21.14,11.04,26.3,12.45c5.17,1.41,4.7,5.28-.35,4.81-5.05-.47-24.78-11.16-27.01-12.8-2.23-1.64-4.81-3.05-3.41-4.34,1.41-1.29,4.46-.12,4.46-.12h0ZM440.58,384.73s18.08,11.51,23.48,13.39c5.4,1.88,6.58,6.46,1.29,5.28-5.28-1.17-23.37-11.27-26.19-13.74-2.82-2.47-5.28-3.99-3.52-5.28,1.76-1.29,4.93.35,4.93.35h0ZM436,391.08s17.03,10.69,22.08,12.8c5.05,2.11,6.46,3.64,2.94,5.52-3.52,1.88-17.61-7.63-19.61-8.92-2-1.29-12.45-8.1-11.16-9.86,1.29-1.76,3.64-1.41,5.75.47h0ZM429.07,396.83s18.32,13.03,23.25,14.33c4.93,1.29,4.58,5.4,1.06,4.81-3.52-.59-25.83-13.97-28.18-16.44-2.35-2.47-.94-4.58.24-4.58s3.64,1.88,3.64,1.88h0ZM422.85,401.88s19.26,13.74,23.37,15.38c4.11,1.64,3.41,6.69-2,4.81s-21.61-14.91-23.84-16.79c-2.23-1.88-2.46-3.56-1.61-4.25.85-.7,3.24-.23,4.08.85h0ZM417.07,406.66s16.29,13.82,20.92,16.21c4.63,2.39,4.32,5.79.23,4.86-4.09-.93-20.15-15.06-22.78-16.91-2.63-1.85-4.71-3.86-2.86-4.79,1.85-.93,2.01-1.24,4.48.62h0ZM410.58,410.83s20.15,16.99,22.47,18.3c2.32,1.31,2.78,4.17,0,3.94-2.78-.23-21.46-15.75-23.16-17.6-1.7-1.85-4.94-2.93-2.93-4.86,2.01-1.93,3.63.23,3.63.23h0ZM406.1,415.85s18.68,15.6,20.69,16.91c2.01,1.31,3.09,5.4-1.93,4.25-5.02-1.16-22.7-19.3-22.7-19.3,0,0-2.16-3.55-.85-4.09,1.31-.54,3.63.23,4.79,2.24h0ZM400.03,418.62s14.96,15.06,20.28,18.07c5.32,3.01.2,6.22-3.01,4.12-3.21-2.11-18.07-15.36-19.77-17.77-1.71-2.41-4.32-4.72-1.61-6.02,2.71-1.31,4.12,1.61,4.12,1.61h0ZM393.81,421.13s14.35,17.16,18.47,19.47c4.12,2.31,1.91,6.62-1.71,5.12-3.61-1.51-19.97-20.98-19.97-20.98,0,0-2.01-4.02,0-4.42,2.01-.4,3.21.8,3.21.8h0ZM388.39,425.34s15.26,18.37,17.77,20.58c2.51,2.21.9,5.32-2.01,3.92-2.91-1.41-17.77-20.38-18.87-21.98-1.1-1.61-2.41-4.12-.5-4.52,1.91-.4,2.41.2,3.61,2.01h0ZM382.46,428.15s13.45,19.27,16.26,21.48c2.81,2.21,1.41,5.32-1.51,3.71-2.91-1.61-15.96-19.27-17.37-22.28-1.41-3.01-1.91-4.32-.2-4.72,1.71-.4,2.81,1.81,2.81,1.81h0ZM376.94,430.16s13.15,19.17,15.66,22.18c2.51,3.01-.2,5.92-2.81,3.41-2.61-2.51-14.45-21.48-15.36-23.19-.9-1.71-1-5.32,2.51-2.41h0ZM371.22,431.87s11.74,20.78,14.25,22.89c2.51,2.11,2.31,7.03-2.11,3.91s-14.05-20.88-14.76-23.09c-.7-2.21-2.11-7.93,2.61-3.71h0ZM365.6,434.18s10.44,20.78,13.35,23.99c2.91,3.21.9,6.32-2.21,3.51-3.11-2.81-13.45-22.18-14.15-24.39-.7-2.21-.5-6.42,3.01-3.11h0ZM359.78,435.88s10.34,22.79,13.35,25.7c3.01,2.91.2,5.42-2.21,3.41-2.41-2.01-13.25-23.99-13.55-25.9-.3-1.91-.4-5.62,2.41-3.21h0ZM356.97,443.81s9.13,17.06,10.04,18.97c.9,1.91,2.21,3.81,0,4.62-2.21.8-9.84-14.25-10.64-16.46-.8-2.21-3.11-10.34.6-7.13h0ZM354.26,450.94l7.03,14.05s3.71,5.02,0,4.72c-3.71-.3-9.84-15.06-9.84-15.06l2.81-3.71h0ZM349.84,459.17l4.52,7.73s2.81,5.92-1.4,3.71c-4.22-2.21-6.83-10.94-6.83-10.94l3.71-.5h0ZM460.76,216.18c1.75,5.07-3.71,13.86-6.21,17.7-2.49,3.83-10.59,14.79-11.96,11.11-.72-1.93,5.03-7.35,9.21-14.44,4.67-7.92,7.92-17.34,8.95-14.36h0ZM448.26,255.68c3.61-2.03-3.78-8.98,6.96-15.55,2.3-1.41,4.27-6.4,8.29-9.15,2.82-1.92,7.53,14.42-2.88,22.55-2.21,1.73-12.35,9.34-13.44,3.58-.19-1.03.15-.91,1.07-1.42h0ZM450.08,275.83c1.85-7.61,1.83-2.7,1.53-9.75-.02-.43,5.12-2.52,6.83-3.55,3.22-1.94,5.88-5.3,8.1-8.72.68-1.05,8.26,1.88,4.03,12.01-4.68,11.21-21.93,15.97-20.49,10.01h0ZM454.11,287.11c4.24-6.95,8.49-4.66,14.17-8.39,3.43-2.26,7.41,10.99-7.22,21.34-.05.03-15.1,2.91-11.19-2.05,3.07-3.9,3.65-9.94,4.24-10.9h0ZM451.76,310.13c-.21,6.41-13.41,11.15,3.77,10.56,10.67-.36,17.59-21.31,6.35-16.78-.43.17-7.19,4.54-9.55,5.6-.33.15-.56.29-.57.62h0ZM448.38,327.38c4.8-1.02,5.82.08,10.34-3.06,2.84-1.97,3.39,2.09,2.33,5.2-2.13,6.25-8.1,8.36-14.2,7.13-8.42-1.7-2.11-3.53-1.05-5.42.37-.66,2.09-3.74,2.58-3.85h0ZM438.07,344.12c7.82-5.16,1.94-3.91,13.83-2.64,9.74,1.04,1.19,7.69-3.3,7.97-2.85.18-10.84-.9-10.68-4.82l.15-.52h0ZM440.73,353.96c8.23-5.5,11.98,10.09.45,10.7-7.23.38-7.58-1.91-10.5-5.25-.12-.14,8.9-4.68,10.05-5.45h0ZM421.54,373.41c.8-.97,11.7-5.92,14.14-5.33,5.9,1.42,2.83,12.32-10.13,10.32-.91-.14-5.15-3.59-4-4.99h0ZM412.91,384.32c2.59-.69,5.66-.86,8.02-2.53,3.23-2.3,7.99,4.11,2.21,8.37-1.63,1.2-7.88,2.74-9.2-.32-.63-1.47-1.86-5.3-1.03-5.52h0ZM405.68,390.25c-1.29,1.35-.49,4.19,1.77,6.35,2.26,2.15,5.14,2.8,6.43,1.45,1.28-1.35.49-4.19-1.77-6.35-2.26-2.15-5.14-2.8-6.43-1.45h0ZM399.55,395.71c-1.3,1.19-.73,3.91,1.26,6.08s4.66,2.96,5.95,1.77c1.29-1.19.73-3.91-1.26-6.08-1.99-2.17-4.66-2.96-5.95-1.77h0ZM393.41,401.22c-1.29,1.03-.93,3.62.79,5.77,1.73,2.16,4.17,3.07,5.46,2.04,1.29-1.03.93-3.62-.79-5.77-1.73-2.16-4.17-3.07-5.46-2.04h0ZM379.47,409.05c-1.27.88-1.1,3.31.37,5.44,1.47,2.12,3.69,3.13,4.96,2.25,1.27-.88,1.1-3.31-.37-5.44-1.47-2.12-3.69-3.13-4.96-2.25h0ZM386.28,405.48c-1.27.88-1.1,3.31.37,5.44,1.47,2.12,3.69,3.13,4.96,2.25,1.27-.88,1.1-3.31-.37-5.44-1.47-2.12-3.69-3.13-4.96-2.25h0ZM373.18,412.92c-1.23.74-1.23,3.01,0,5.07,1.23,2.06,3.23,3.14,4.46,2.4,1.23-.74,1.23-3.01,0-5.07-1.23-2.06-3.23-3.14-4.46-2.4h0ZM366.88,416.41c-1.18.6-1.33,2.7-.32,4.68,1.01,1.98,2.78,3.1,3.97,2.5,1.18-.6,1.33-2.7.32-4.68-1.01-1.98-2.78-3.1-3.97-2.5h0ZM360.54,419.65c-1.12.48-1.39,2.39-.59,4.27.8,1.88,2.36,3.02,3.48,2.54,1.12-.48,1.39-2.39.59-4.27-.8-1.88-2.36-3.02-3.48-2.54h0ZM354.33,421.75c-1.05.37-1.41,2.09-.8,3.85.61,1.76,1.96,2.89,3.01,2.53,1.05-.37,1.41-2.09.8-3.85-.61-1.76-1.96-2.89-3.01-2.53h0ZM399.16,379.45c-1.12,1.11-.52,3.54,1.34,5.42,1.86,1.88,4.29,2.5,5.41,1.39,1.12-1.11.52-3.54-1.34-5.42-1.86-1.88-4.29-2.5-5.41-1.39h0ZM393.82,384.48c-1.17.98-.79,3.36.85,5.33,1.64,1.96,3.92,2.76,5.09,1.78,1.17-.98.79-3.36-.85-5.33-1.64-1.96-3.92-2.76-5.09-1.78h0ZM388.48,389.55c-1.21.85-1.04,3.17.38,5.19,1.42,2.02,3.54,2.97,4.75,2.13,1.21-.85,1.04-3.17-.38-5.19-1.42-2.02-3.54-2.97-4.75-2.13h0ZM382.75,394.29c-1.23.71-1.25,2.96-.06,5.01,1.19,2.05,3.16,3.14,4.38,2.43,1.23-.71,1.25-2.96.06-5.01-1.19-2.05-3.16-3.14-4.38-2.43h0ZM376.63,398.7c-1.23.58-1.44,2.73-.47,4.79.98,2.06,2.77,3.27,4,2.68,1.23-.58,1.44-2.73.47-4.79-.98-2.06-2.77-3.27-4-2.68h0ZM370.84,402.06c-1.23.46-1.6,2.49-.84,4.55.77,2.05,2.38,3.35,3.61,2.89,1.23-.46,1.6-2.49.83-4.55-.77-2.06-2.38-3.35-3.61-2.89h0ZM364.71,405.44c-1.16.48-1.46,2.44-.66,4.38.8,1.95,2.38,3.14,3.54,2.66,1.16-.48,1.46-2.44.66-4.38-.8-1.95-2.38-3.14-3.54-2.66h0ZM358.87,408.35c-1.14.37-1.57,2.22-.96,4.13.62,1.91,2.04,3.17,3.18,2.8,1.14-.37,1.57-2.22.96-4.13-.62-1.92-2.04-3.17-3.18-2.8h0ZM352.89,410.87c-1.11.28-1.63,2.02-1.15,3.88.47,1.86,1.76,3.14,2.87,2.85,1.11-.28,1.63-2.02,1.15-3.88-.48-1.86-1.76-3.14-2.87-2.85h0ZM352.02,399.93c-1,.28-1.46,2.02-1.03,3.88.43,1.86,1.58,3.14,2.57,2.85,1-.28,1.46-2.02,1.03-3.88-.43-1.86-1.58-3.14-2.57-2.85h0ZM357.05,396.85c-1.04.44-1.31,2.38-.6,4.34.71,1.96,2.13,3.18,3.17,2.74,1.04-.44,1.31-2.38.6-4.34-.71-1.96-2.13-3.18-3.17-2.74h0ZM362,393.87c-1.06.61-1.09,2.74-.06,4.74,1.02,2.01,2.71,3.14,3.77,2.53,1.06-.61,1.09-2.74.06-4.74-1.02-2.01-2.71-3.14-3.77-2.53h0ZM366.86,391.01c-1.05.79-.8,3.07.56,5.07,1.36,2.01,3.31,2.99,4.36,2.2,1.05-.79.8-3.07-.56-5.07-1.36-2.01-3.31-2.99-4.36-2.2h0ZM371.67,388.28c-1.01.98-.44,3.36,1.27,5.32,1.71,1.96,3.92,2.74,4.93,1.76,1.01-.98.44-3.37-1.27-5.32-1.71-1.96-3.92-2.74-4.93-1.76h0ZM376.16,383.76c-.94,1.17-.03,3.62,2.04,5.46,2.07,1.84,4.51,2.39,5.45,1.22.94-1.17.03-3.62-2.04-5.46-2.07-1.84-4.51-2.39-5.45-1.22h0ZM380.93,379.43c-.87,1.28.28,3.72,2.55,5.44,2.28,1.72,4.82,2.07,5.69.79.87-1.28-.28-3.72-2.55-5.44-2.28-1.72-4.82-2.07-5.69-.79h0ZM385.73,375.12c-.78,1.39.59,3.79,3.07,5.36,2.48,1.57,5.12,1.72,5.9.33.78-1.39-.59-3.79-3.07-5.36-2.48-1.57-5.12-1.72-5.9-.33h0ZM389.96,370.32c-.68,1.49.93,3.83,3.6,5.23,2.67,1.4,5.39,1.33,6.08-.16.68-1.49-.93-3.83-3.6-5.23-2.67-1.4-5.39-1.33-6.08.15h0ZM394.55,364.95c-.58,1.58,1.27,3.84,4.12,5.06,2.85,1.21,5.63.91,6.21-.67.58-1.58-1.27-3.84-4.12-5.06s-5.63-.91-6.21.67h0ZM406.66,295.6c-1.46-1.38-6.51,1.58-11.28,6.61-4.77,5.04-7.45,10.24-5.99,11.62,1.46,1.38,6.51-1.58,11.28-6.61,4.77-5.03,7.45-10.24,5.99-11.62h0ZM406.67,312.82c-.92-1.4-5.6.04-10.43,3.23-4.84,3.19-8.01,6.91-7.09,8.31.92,1.4,5.6-.04,10.43-3.23,4.84-3.19,8.01-6.91,7.09-8.31h0ZM405.59,326.78c-.57-1.37-4.86-.9-9.59,1.05-4.73,1.95-8.1,4.65-7.54,6.02.57,1.37,4.86.9,9.59-1.05,4.73-1.95,8.1-4.65,7.54-6.02h0ZM402,338.51c-.25-1.21-3.84-1.51-8.03-.65-4.19.85-7.38,2.53-7.13,3.74.25,1.21,3.84,1.51,8.03.65,4.19-.85,7.38-2.53,7.13-3.74h0ZM398.85,347.91c-.09-1.24-3.62-1.99-7.88-1.68-4.26.31-7.64,1.56-7.55,2.79.09,1.24,3.62,1.99,7.88,1.68,4.26-.31,7.64-1.56,7.55-2.79h0ZM393.75,357.1c.13-1.05-2.71-2.26-6.35-2.7-3.63-.44-6.68.06-6.81,1.11-.13,1.05,2.71,2.26,6.35,2.7,3.63.44,6.68-.06,6.81-1.11h0ZM389.29,364.56c.28-.89-1.99-2.39-5.06-3.35-3.08-.96-5.79-1.01-6.07-.12-.28.89,1.99,2.39,5.06,3.35,3.08.96,5.79,1.01,6.07.12h0ZM383.84,370.35c.38-.71-1.32-2.34-3.78-3.64-2.46-1.3-4.76-1.77-5.14-1.05-.38.71,1.31,2.34,3.78,3.64,2.46,1.3,4.76,1.77,5.14,1.06h0ZM378.63,375.22c.42-.53-.73-2.14-2.58-3.59-1.84-1.45-3.68-2.19-4.1-1.66-.42.53.73,2.14,2.57,3.59,1.84,1.45,3.68,2.19,4.1,1.66h0ZM374.6,378.68c.42-.45-.49-1.97-2.03-3.41-1.54-1.44-3.12-2.24-3.54-1.79-.42.45.49,1.97,2.03,3.41,1.54,1.44,3.12,2.24,3.54,1.79h0ZM370.4,381.84c.37-.34-.27-1.65-1.43-2.93-1.16-1.28-2.4-2.05-2.77-1.71-.37.34.27,1.65,1.43,2.93,1.16,1.28,2.4,2.05,2.77,1.71h0ZM365.98,384.96c.39-.3-.12-1.64-1.15-2.99-1.03-1.35-2.18-2.21-2.57-1.91-.39.3.12,1.64,1.15,2.99,1.03,1.35,2.18,2.21,2.57,1.91h0ZM360.71,388.81c.47-.15.43-1.59-.1-3.2-.52-1.62-1.33-2.81-1.8-2.65-.47.15-.43,1.59.1,3.2.52,1.62,1.33,2.81,1.8,2.65h0ZM356.69,391.23c.48-.11.57-1.54.19-3.2-.37-1.66-1.07-2.91-1.55-2.81-.48.11-.57,1.54-.19,3.2.37,1.66,1.07,2.91,1.55,2.81h0ZM352.54,393.24c.49-.07.7-1.48.48-3.17-.22-1.69-.8-3-1.29-2.93-.49.06-.7,1.48-.48,3.17.22,1.69.8,3,1.29,2.93h0ZM348.53,394.96c.49-.05.75-1.46.58-3.15-.17-1.69-.71-3.02-1.2-2.97-.49.05-.75,1.46-.58,3.15.17,1.69.71,3.02,1.2,2.97h0ZM344.7,397.08c.49-.05.75-1.46.59-3.15-.17-1.69-.7-3.02-1.19-2.98-.49.05-.75,1.46-.59,3.15.17,1.69.7,3.02,1.19,2.98h0ZM431.38,260.97c2.33-1.82,8.71-12.75,11.2-8.5,1.91,3.26-5.28,12.41-9.15,13.27-3.31.74-4.71-2.68-2.05-4.76h0ZM434.89,272.69c3.76-5.76,5.14-5.89,9.03-10.21,1.3-1.45,2.15,9.45-1.48,14.73-2.04,2.96-4.59,4.64-8.23,4.64,0-3.34.06-1.42.64-5.32.16-1.09-.1-3.63.04-3.84h0ZM436.47,289.18c.27-2.22,9.98-9.49,9.98-2.09,0,5.74-1.08,10.37-5.75,13.49-.36.24-9.24,2.61-6.5-.86,2.42-3.07,2.16-9.63,2.27-10.54h0ZM444.41,305.81c2.58,1.23-.95,15.37-11.05,13.82-3.94-.6,1.36-6.9.97-9.58,2.53-.48,9.15-4.69,10.08-4.24h0ZM428.76,331.01c3.08-.64-.05-5.15,5.74-6.32,1.15-.23,7.6-1.83,7.75-.34.37,3.91-5.04,10.38-8.72,11.48-10.71,3.2-7.21-4.32-4.76-4.82h0ZM425.77,346.32c.61-1.84,1.97-3.63,3.95-3.9,7.7-1.05,5.39,3.65,2.26,7.92-3.88,5.29-12.31,4.19-12.25,3.48.51-6.18,4.32-2.29,6.04-7.5h0ZM415.82,363.75c1.92-1.43,7.14-7.11,8.82-3.07.97,2.34-.56,5-2.5,6.46-2.35,1.77-9.25,3.39-10.68-.08-1.34-3.24,3.89-2.96,4.36-3.31h0ZM407.75,373.17c3.01,1.23,8.48-3.74,8.25,2-.07,1.83-7.47,6.69-11.28,2.45-1.56-1.74-2.28-1.51-.31-4.54,0,0,2.77-.14,3.34.1h0ZM412.12,281.97c4.82-3.05,9.03-11.76,12.22-13.29,2.82-1.35,4.98-2.73,3.2,3.27-.32,1.08-14.78,23.09-17.24,13.73-.48-1.83,1.63-3.59,1.82-3.71h0ZM414.27,295.82c2.76-3.17-.47-1.62,4.19-6.27,1.31-1.31,8.82-7.66,10.04-4.92,2.14,4.79,4.63,5.2-.9,11.87-2.81,3.38-6.66,4.8-10.94,5.15-5.62.46-5.09-.63-2.78-5.69l.39-.14h0ZM412.88,313.75c3.85-1.99-.77-4.13,10.33-8.84,7.45-3.16,5.71,2.36,4.59,7.29-1.85,8.13-18.34,9.73-15.64,2.17.07-.19.53-.52.73-.62h0ZM410.39,329.46c3.52.16.17-4.28,6.3-4.15,1.39.03,8.45-1.45,8.62-.13.49,3.79-2.24,6.29-5.6,7.7-2.52,1.07-15.57,2.08-9.96-3.43.25-.24.29-.02.63,0h0ZM405.27,344.89c2.16.19,5.99-8.36,14.06-6.12,2.91.81,4.31,9.66-8.42,9.66-2.43,0-8.58.25-6.04-3.66l.4.13h0ZM411.77,354.47c2.61,1.91-.3,5.1-4.37,7.23-5.75,3.01-15.38-3.82-6.85-5.24,2.73-.46,7.99-4.34,11.21-1.99h0ZM339.29,388.57s2.28-5.41,1.85-8.83c0,0,33.19-17.11,42.21-57.82,0,0,6.56,39.62-44.06,66.65h0ZM336.52,380.34l.7-16.35-4.67-15.18h-20.32s16.81,39,16.81,39l7.47-7.47h0ZM345.4,370.54l-6.31-25.92,6.54-10.04s11.91,4.67,20.55-3.04c8.64-7.71,11.68-22.42,11.91-26.39.23-3.97,1.17-8.64,12.14-17.98,10.98-9.34,56.34-46.26,71.48-98.15,0,0-1.23,38.61-50.03,87.4-14.53,14.53-23.54,23.76-27.59,32.06-9.55,19.58-.83,29.81-38.69,62.06h0ZM298.04,169.91s-11.25-5.17-32.38.3c-21.13,5.47-36.64-2.43-39.07-15.66,0,0,21.89,7.45,35.88,3.19,13.99-4.26,31.01-3.65,35.58,12.16h0ZM326.32,184.51s-6.99-1.82-14.6.3c0,0,.15-3.5-2.74-4.86-2.89-1.37,9.12-8.67,17.33,4.56h0ZM303.52,180.1l-6.69-2.43s3.04-3.04,3.34-4.87c.3-1.82-8.21-.76-9.58,8.06l12.92-.76h0ZM287.36,173.89c.79.53.22,2.77-1.28,5-1.5,2.23-3.35,3.62-4.13,3.09-.79-.53-.22-2.77,1.28-5,1.5-2.23,3.35-3.62,4.13-3.09h0ZM278.78,174.75c.79.53.22,2.77-1.28,5-1.5,2.23-3.35,3.62-4.13,3.09s-.22-2.77,1.28-5c1.5-2.23,3.35-3.62,4.13-3.09h0ZM270.19,175.61c.79.53.22,2.77-1.28,5-1.5,2.23-3.35,3.62-4.13,3.09-.79-.53-.22-2.77,1.28-5,1.5-2.23,3.35-3.62,4.13-3.09h0ZM261.8,177.54c.69.46.19,2.44-1.13,4.4-1.32,1.97-2.95,3.18-3.64,2.72-.69-.46-.19-2.44,1.13-4.4,1.32-1.97,2.95-3.18,3.64-2.72h0ZM254.66,178.65c.55.37.15,1.94-.9,3.51-1.05,1.57-2.35,2.54-2.9,2.17-.55-.37-.15-1.94.9-3.51,1.05-1.57,2.35-2.54,2.9-2.17h0ZM248.3,178.2c.46.3.12,1.6-.74,2.89-.86,1.29-1.93,2.09-2.39,1.78-.46-.3-.12-1.6.74-2.89.86-1.29,1.93-2.09,2.39-1.78h0ZM243.23,176.66c.41.37-.11,1.6-1.15,2.75-1.04,1.15-2.22,1.78-2.62,1.41-.41-.37.11-1.6,1.16-2.75,1.04-1.15,2.22-1.78,2.62-1.41h0ZM238,174.44c.33.41-.33,1.5-1.48,2.44-1.15.94-2.36,1.38-2.69.97-.33-.41.33-1.5,1.48-2.44,1.15-.94,2.36-1.38,2.69-.97h0ZM234.37,172.17c.19.44-.68,1.23-1.93,1.76-1.25.53-2.42.61-2.61.16-.19-.44.68-1.23,1.93-1.76,1.25-.53,2.42-.61,2.61-.16h0ZM231.52,169.62c.05.43-.9.9-2.13,1.04-1.23.14-2.26-.09-2.31-.52-.05-.43.9-.9,2.13-1.04,1.23-.14,2.26.09,2.31.52h0ZM304.4,181.61s.25,4.05-14.62,3.19c-14.87-.86-44.72.61-43.86,27.15h30.22s-2.09-13.02,13.15-17.2c15.23-4.18,17.94-6.63,15.11-13.15h0ZM308.78,163.65c2.49,0,4.5,2.01,4.5,4.5s-2.01,4.5-4.5,4.5-4.5-2.01-4.5-4.5,2.01-4.5,4.5-4.5h0ZM243.87,215.88c.53,0,.96,2.24.96,5s-.43,5-.96,5-.96-2.24-.96-5,.43-5,.96-5h0ZM279.87,216c-.53,0-.96,2.24-.96,5s.43,5,.96,5,.96-2.24.96-5-.43-5-.96-5h0ZM247.13,216.74c.53,0,.96,2.24.96,5s-.43,5-.96,5-.96-2.24-.96-5,.43-5,.96-5h0ZM276.6,216.85c-.53,0-.96,2.24-.96,5s.43,5,.96,5,.96-2.24.96-5-.43-5-.96-5h0ZM250.4,217.14c.53,0,.96,2.24.96,5s-.43,5-.96,5-.96-2.24-.96-5,.43-5,.96-5h0ZM273.33,217.25c-.53,0-.96,2.24-.96,5s.43,5,.96,5,.96-2.24.96-5-.43-5-.96-5h0ZM253.67,217.64c.53,0,.96,2.24.96,5s-.43,5-.96,5-.96-2.24-.96-5,.43-5,.96-5h0ZM270.06,217.75c-.53,0-.96,2.24-.96,5s.43,5,.96,5,.96-2.24.96-5-.43-5-.96-5h0ZM256.94,218.33c.53,0,.96,2.24.96,5s-.43,5-.96,5-.96-2.24-.96-5,.43-5,.96-5h0ZM266.8,218.44c-.53,0-.96,2.24-.96,5s.43,5,.96,5,.96-2.24.96-5-.43-5-.96-5h0ZM260.21,218.59c.53,0,.96,2.24.96,5s-.43,5-.96,5-.96-2.24-.96-5,.43-5,.96-5h0ZM263.53,218.71c-.53,0-.96,2.24-.96,5s.43,5,.96,5,.96-2.24.96-5-.43-5-.96-5h0ZM242.79,232.95c.58,0,1.04,2.44,1.04,5.45s-.47,5.45-1.04,5.45-1.04-2.44-1.04-5.45.47-5.45,1.04-5.45h0ZM281.99,233.07c-.58,0-1.04,2.44-1.04,5.45s.47,5.45,1.04,5.45,1.04-2.44,1.04-5.45-.47-5.45-1.04-5.45h0ZM246.35,233.88c.58,0,1.04,2.44,1.04,5.45s-.47,5.45-1.04,5.45-1.04-2.44-1.04-5.45.47-5.45,1.04-5.45h0ZM278.43,234c-.58,0-1.04,2.44-1.04,5.45s.47,5.45,1.04,5.45,1.04-2.44,1.04-5.45-.47-5.45-1.04-5.45h0ZM249.9,234.31c.58,0,1.04,2.44,1.04,5.45s-.47,5.45-1.04,5.45-1.04-2.44-1.04-5.45.47-5.45,1.04-5.45h0ZM274.87,234.44c-.58,0-1.04,2.44-1.04,5.45s.47,5.45,1.04,5.45,1.04-2.44,1.04-5.45-.47-5.45-1.04-5.45h0ZM253.46,234.86c.58,0,1.04,2.44,1.04,5.45s-.47,5.45-1.04,5.45-1.04-2.44-1.04-5.45.47-5.45,1.04-5.45h0ZM271.31,234.98c-.58,0-1.04,2.44-1.04,5.45s.47,5.45,1.04,5.45,1.04-2.44,1.04-5.45-.47-5.45-1.04-5.45h0ZM257.02,235.61c.58,0,1.04,2.44,1.04,5.45s-.47,5.45-1.04,5.45-1.04-2.44-1.04-5.45.47-5.45,1.04-5.45h0ZM267.75,235.73c-.58,0-1.04,2.44-1.04,5.45s.47,5.45,1.04,5.45,1.04-2.44,1.04-5.45-.47-5.45-1.04-5.45h0ZM260.58,235.9c.58,0,1.04,2.44,1.04,5.45s-.47,5.45-1.04,5.45-1.04-2.44-1.04-5.45.47-5.45,1.04-5.45h0ZM264.2,236.02c-.58,0-1.04,2.44-1.04,5.45s.47,5.45,1.04,5.45,1.04-2.44,1.04-5.45-.47-5.45-1.04-5.45h0ZM243.5,249.47c.68,0,1.23,2.95,1.23,6.59s-.55,6.59-1.23,6.59-1.23-2.95-1.23-6.59.55-6.59,1.23-6.59h0ZM247.71,250.59c.68,0,1.23,2.95,1.23,6.59s-.55,6.59-1.23,6.59-1.23-2.95-1.23-6.59.55-6.59,1.23-6.59h0ZM285.63,250.74c-.68,0-1.23,2.95-1.23,6.59s.55,6.59,1.23,6.59,1.23-2.95,1.23-6.59-.55-6.59-1.23-6.59h0ZM251.91,251.12c.68,0,1.23,2.95,1.23,6.59s-.55,6.59-1.23,6.59-1.23-2.95-1.23-6.59.55-6.59,1.23-6.59h0ZM281.43,251.27c-.68,0-1.23,2.95-1.23,6.59s.55,6.59,1.23,6.59,1.23-2.95,1.23-6.59-.55-6.59-1.23-6.59h0ZM256.12,251.78c.68,0,1.23,2.95,1.23,6.59s-.55,6.59-1.23,6.59-1.23-2.95-1.23-6.59.55-6.59,1.23-6.59h0ZM277.22,251.93c-.68,0-1.23,2.95-1.23,6.59s.55,6.59,1.23,6.59,1.23-2.95,1.23-6.59-.55-6.59-1.23-6.59h0ZM260.33,252.69c.68,0,1.23,2.95,1.23,6.59s-.55,6.59-1.23,6.59-1.23-2.95-1.23-6.59.55-6.59,1.23-6.59h0ZM273.01,252.84c-.68,0-1.23,2.95-1.23,6.59s.55,6.59,1.23,6.59,1.23-2.95,1.23-6.59-.55-6.59-1.23-6.59h0ZM264.53,253.04c.68,0,1.23,2.95,1.23,6.59s-.55,6.59-1.23,6.59-1.23-2.95-1.23-6.59.55-6.59,1.23-6.59h0ZM268.81,253.19c-.68,0-1.23,2.95-1.23,6.59s.55,6.59,1.23,6.59,1.23-2.95,1.23-6.59-.55-6.59-1.23-6.59h0ZM241.72,286.6c-1.57,2.42,5.84,3.61,5.29-5.29-.09-1.47.9-11.83.61-11.81-7.56.34-2.96,12.57-5.9,17.11h0ZM248.15,288.29c-1.57,2.42,5.84,3.61,5.29-5.29-.09-1.47.9-11.83.61-11.81-7.56.34-2.96,12.57-5.9,17.11h0ZM254.65,288.92c-1.57,2.42,5.84,3.61,5.29-5.29-.09-1.46.91-11.83.61-11.81-7.56.34-2.96,12.57-5.9,17.11h0ZM261.41,289.65c-1.48,2.47,5.96,3.41,5.11-5.47-.14-1.46.5-11.85.21-11.83-7.54.6-2.53,12.67-5.31,17.3h0ZM236.37,309.89c-1.81,2.42,6.74,3.61,6.11-5.29-.1-1.47,1.04-11.83.7-11.81-8.72.34-3.42,12.57-6.81,17.11h0ZM243.78,311.58c-1.81,2.42,6.74,3.61,6.11-5.29-.1-1.47,1.04-11.83.7-11.81-8.72.34-3.42,12.57-6.81,17.11h0ZM251.28,312.21c-1.81,2.42,6.74,3.61,6.11-5.29-.1-1.47,1.04-11.83.7-11.81-8.72.34-3.42,12.57-6.81,17.11h0ZM259.09,312.93c-1.71,2.47,6.88,3.41,5.89-5.47-.16-1.46.57-11.85.24-11.83-8.7.6-2.92,12.67-6.13,17.3h0ZM229.56,332.28c-1.93,2.42,7.18,3.61,6.51-5.29-.11-1.47,1.11-11.83.75-11.81-9.29.34-3.64,12.57-7.26,17.11h0ZM237.46,333.98c-1.93,2.42,7.18,3.61,6.51-5.29-.11-1.47,1.11-11.83.75-11.81-9.29.34-3.64,12.57-7.26,17.11h0ZM245.45,334.6c-1.93,2.42,7.18,3.61,6.51-5.29-.11-1.46,1.11-11.83.75-11.81-9.29.34-3.64,12.57-7.26,17.11h0ZM294.17,333.25c1.93,2.42-7.18,3.61-6.51-5.29.11-1.47-1.11-11.83-.75-11.81,9.29.34,3.64,12.57,7.26,17.11h0ZM286.27,334.94c1.93,2.42-7.18,3.61-6.51-5.29.11-1.47-1.11-11.83-.75-11.81,9.29.34,3.64,12.57,7.26,17.11h0ZM298.8,309.98c1.81,2.42-6.74,3.61-6.11-5.29.1-1.47-1.04-11.83-.7-11.81,8.72.34,3.42,12.57,6.81,17.11h0ZM306.33,309.3c1.81,2.42-6.74,3.61-6.11-5.29.1-1.47-1.04-11.83-.7-11.81,8.72.34,3.42,12.57,6.81,17.11h0ZM309.66,333.07c1.81,2.42-6.74,3.61-6.11-5.29.1-1.47-1.04-11.83-.7-11.81,8.72.34,3.42,12.57,6.81,17.11h0ZM312.75,307.28c1.49,1.99-5.55,2.97-5.03-4.36.09-1.21-.86-9.74-.58-9.73,7.18.28,2.82,10.35,5.61,14.08h0ZM315.82,330.02c1.68,2.25-6.27,3.36-5.68-4.92.1-1.36-.97-11-.66-10.98,8.11.31,3.18,11.69,6.33,15.9h0ZM323.96,330.3c1.68,2.25-6.26,3.36-5.68-4.92.1-1.36-.97-11-.66-10.98,8.11.31,3.18,11.69,6.33,15.9h0ZM291.39,311.67c1.81,2.42-6.74,3.61-6.11-5.29.1-1.47-1.04-11.83-.7-11.81,8.72.34,3.42,12.57,6.81,17.11h0ZM283.89,312.3c1.81,2.42-6.74,3.61-6.11-5.29.1-1.47-1.04-11.83-.7-11.81,8.72.34,3.42,12.57,6.81,17.11h0ZM276.08,313.02c1.71,2.47-6.88,3.41-5.89-5.47.16-1.46-.57-11.85-.24-11.83,8.7.6,2.92,12.67,6.13,17.3h0ZM296.72,286.6c1.64,2.42-6.11,3.61-5.54-5.29.1-1.47-.95-11.83-.64-11.81,7.91.34,3.1,12.57,6.18,17.11h0ZM290,288.29c1.64,2.42-6.11,3.61-5.54-5.29.09-1.47-.95-11.83-.64-11.81,7.91.34,3.1,12.57,6.18,17.11h0ZM283.19,288.92c1.64,2.42-6.11,3.61-5.54-5.29.09-1.46-.95-11.83-.64-11.81,7.91.34,3.1,12.57,6.18,17.11h0ZM276.11,289.65c1.55,2.47-6.24,3.41-5.35-5.47.15-1.46-.52-11.85-.21-11.83,7.9.6,2.65,12.67,5.56,17.3h0Z"/>
  <path class="cls-1" d="M351.82,484.23c-.96-.96-1.98-3.51-3.21-1.03-1,2.01,4.53,3.35,1.28,7.32-.93,1.14-4.5-.58-5.38,1.46-1.18,2.76-5-.64-6.42-.15-2,.69-2.38,1.24-2.95,3.35-1,3.7,4,5.92,8.01,1.41,1.7-1.91,4.84-.93,7.15-1.59,4.56-1.3,6.28-5.72,2.65-9.2-.37-.36-.85-1.29-1.14-1.57h0ZM341.67,508.18c-2.17-.1-3.97-.61-6.03,1.41-2.23,2.18-3.35-.71-7.89-.71-5.25,0-5.22,6.47.34,6.47,7.79,0,1.11-2.42,8.92-2.7,1.22-.04,2.7-2.01,4.5-2.46.56-.14.77-1.98.16-2.01h0ZM347.93,496.86c.34.61-.72,2.84-3.19,2.84-6.45,0-2.36,1.64-6.35,2.02-2.81.27-4.44-3.63-8.95.17-1.63,1.37-.32,4.14,1.57,4.28.7.05,4.14,1.4,5.42-.23.32-.41,6.22-2.01,7.18-1.62,1.19.49,7.25-1.77,7.34-3.85.26-5.99-3.03-3.65-3.01-3.61h0Z"/>
  <path class="cls-1" d="M194.76,484.23c.96-.96,1.98-3.51,3.21-1.03,1,2.01-4.53,3.35-1.28,7.32.94,1.14,4.5-.58,5.38,1.46,1.18,2.76,5-.64,6.42-.15,2,.69,2.38,1.24,2.95,3.35,1,3.7-4,5.92-8.01,1.41-1.7-1.91-4.84-.93-7.15-1.59-4.56-1.3-6.28-5.72-2.65-9.2.37-.36.85-1.29,1.14-1.57h0ZM204.9,508.18c2.17-.1,3.97-.61,6.03,1.41,2.23,2.18,3.35-.71,7.89-.71,5.25,0,5.22,6.47-.34,6.47-7.79,0-1.11-2.42-8.92-2.7-1.22-.04-2.7-2.01-4.5-2.46-.56-.14-.77-1.98-.16-2.01h0ZM198.65,496.86c-.34.61.72,2.84,3.19,2.84,6.45,0,2.36,1.64,6.35,2.02,2.81.27,4.44-3.63,8.96.17,1.63,1.37.32,4.14-1.57,4.28-.7.05-4.14,1.4-5.42-.23-.32-.41-6.21-2.01-7.18-1.62-1.19.49-7.25-1.77-7.34-3.85-.26-5.99,3.03-3.65,3.01-3.61h0Z"/>
  <path class="cls-2" d="M110.01,470.8c.07-.18.16-.36.26-.54,1.07-1.86,3.31-2.51,5.25-1.65.76.33,1.4.86,1.98,1.44,1.16,1.16,1.97,1.46,3.59,1.9,1.69.46,3.47.8,5.19,1.13,3.04.58,6.09,1.13,9.14,1.68,6.61,1.21,12.95,3.77,18.38,7.76.36.26.73.55,1.11.84,1.09-.46,2.3-.38,3.36.24,6.05,3.49,12.12,7,18.22,10.41,1.77.99,3.43,2.51,4.88,4.26.85-.21,1.75-.11,2.59.3,9.07,4.49,16.08,12.17,21.17,20.78,2.16,3.66,4.43,8.22,5.82,12.39l11.18,10.31c.88.81,1.3,1.87,1.23,3.06-.08,1.19-.64,2.19-1.61,2.88l-3.17,2.24c-1.55,1.09-3.62.91-4.94-.45l-8.73-8.9c-14.72.1-30-2.19-43.41-8.42-4.64-2.15-11-5.79-14.61-9.56-.87-.91-1.22-2.12-1.02-3.29-.17-.04-.32-.08-.46-.11-4.15-.99-8.67-2.93-12.58-4.66-5.01-2.21-9.96-4.62-14.85-7.09-4.13-2.09-8.24-4.24-12.3-6.47-1.22-.67-2.44-1.35-3.64-2.06-.36-.21-.72-.43-1.06-.67-.35-.24-.66-.51-.94-.85-.51-.62-.78-1.31-.86-1.98-5.45-1.31-11.1-2.93-16.27-5.13-5.64-2.4-11.66-4.42-17.49-6.32-3.4-1.11-6.82-2.2-10.25-3.22-1.89-.57-3.04-2.45-2.67-4.39.37-1.94,2.14-3.27,4.1-3.09l2.03.18c.47-.91,1.29-1.6,2.34-1.91,9.25-2.69,19.66-4.18,29.22-2.28,1.33.26,2.87.66,4.42,1.17.44-.56,1.05-1.01,1.78-1.26,1.22-.42,2.5-.21,3.48.5.42-.05.84-.1,1.24-.12,1.73-.1,3.46-.02,5.18.19,1.19.14,2.45.39,3.71.73h0Z"/>
  <path class="cls-1" d="M219.53,544.88l-11.93-11s-6.9-22.74-25.35-31.87c0,0,.37,3.17,0,5.03,0,0-2.98-7.08-7.64-9.69-4.66-2.61-18.26-10.44-18.26-10.44l.56,3.73s-6.9-9.32-22.18-12.11c-15.28-2.8-17.15-2.98-19.94-5.78-2.8-2.8-.37,3.73,1.49,5.22,0,0-4.1-3.35-10.44-4.1-6.34-.75-7.27.93-8.2-.75l.56,3.54s-11.18-8.39-36.16-1.12l6.71,2.98-12.49-1.12s18.08,5.4,28.14,9.69c10.06,4.29,24.04,6.71,24.04,6.71,0,0-3.91,1.86-5.4,1.49-1.49-.37,31.5,17.7,43.24,20.5,11.74,2.8,12.86,4.66,12.86,4.66,0,0-5.03,1.12-9.5-.19,0,0,16.77,17.52,56.84,16.77l9.88,10.06,3.17-2.24h0Z"/>
  <path class="cls-2" d="M423.93,498.92c-.33,1.42-1.06,2.71-2.3,3.67-1.58,1.22-3.48,1.5-5.32,1.17l-73.79,46.87c-1.09.69-2.34.8-3.53.3l-5.14-2.14c-1.31-.55-2.16-1.67-2.33-3.09,0-.01,0-.02,0-.04l-7.88,6.6c-1.08.91-2.46,1.15-3.78.66l-4.07-1.5c-1.29-.48-2.17-1.51-2.44-2.86-.26-1.35.16-2.64,1.18-3.57l83.8-76.3c.34-.31.68-.53,1.11-.71l12.43-5.14c1.51-.63,3.17-.26,4.28.94,1.11,1.2,1.34,2.88.6,4.34l-5.14,10.07c-.24.48-.54.85-.95,1.19l-57.28,47.97,52.13-37.98c.21-1.74.96-3.37,2.44-4.51,1.59-1.22,3.49-1.5,5.35-1.16l27.18-19.81c.43-2.19,1.76-4.5,3.16-6.12,3.85-4.44,9.69-6.23,15.38-6.67.99-.08,1.92.22,2.65.79,1.33-.36,2.69-.62,4.07-.77,1.67-.19,6.74-.82,8.43-1.67,1.35-1.17,3.39-1.26,4.85-.13,1.65,1.28,1.97,3.66.73,5.32-.07.1-.15.2-.24.29-1.49,1.74-2.93,3.53-4.33,5.33-1.77,2.29-4.09,5.29-5.33,7.88-1.39,2.91-2.75,5.64-5.08,7.93-3.13,3.08-7.06,4.41-11.38,4.74-.3.02-.6.01-.89-.03l-28.55,18.14h0Z"/>
  <polygon class="cls-1" points="317.11 547.82 400.91 471.52 413.34 466.38 408.2 476.45 321.18 549.32 317.11 547.82 317.11 547.82"/>
  <path class="cls-1" d="M335.33,545.25l72.81-53.06c.49,1.53,1.34,3.17,2.54,4.71,1.14,1.48,2.44,2.67,3.73,3.53l-73.94,46.96-5.14-2.14h0ZM415.21,487.04l28.36-20.66,7.93,10.5-29.87,18.97c-.44-1.7-1.36-3.56-2.71-5.31-1.13-1.46-2.41-2.65-3.7-3.51h0Z"/>
  <path class="cls-1" d="M444.19,464.9s1.19-8.91,15.12-9.98c0,0-4.72,2.36-8.36,7.5,0,0,5.79-6.43,15.22-7.5,9.43-1.07,10.5-2.57,10.5-2.57,0,0-7.93,9.22-10.29,14.15-2.36,4.93-4.71,9.86-13.29,10.5l-8.9-12.1h0Z"/>
  <path class="cls-1" d="M417.98,491.26c2.49,3.22,3.08,6.94,1.32,8.3-1.76,1.36-5.2-.15-7.69-3.37-2.49-3.22-3.08-6.94-1.32-8.3,1.76-1.36,5.2.15,7.69,3.37h0Z"/>
  <path class="cls-2" d="M279.25,475.89v-114.84c0-2.06,1.35-3.81,3.21-4.43h-8.47c1.86.61,3.21,2.36,3.21,4.43v116.89c0,2.57-2.09,4.66-4.66,4.66s-4.66-2.09-4.66-4.66v-116.89c0-2.06,1.35-3.81,3.21-4.43h-8.47c1.86.61,3.21,2.36,3.21,4.43v114.71s.88.16.88.16l.02,2.23c.05,7.47-1.73,17.26-5.41,23.79-3.16,5.6-7.91,9.46-14.51,9.97-9.19.71-19.11-5.38-26.14-10.66-18.47-13.87-28.85-32.61-28.95-55.83-.07-15.89,4.82-32.62,12.25-46.62,5.79-10.91,10.27-22.92,13.28-34.9l.38-1.53,21.46-5.75h-16.16c-2.12,0-3.96-1.27-4.78-3.09-3.57,2.55-8.64,2.31-12.77,1.37-14.3-3.25-16.57-21.78-9.35-32.44,2.11-3.12,5.87-5.29,9.36-6.5,4.3-1.49,9.05-1.88,13.53-1.04,13.39,2.53,19.6,14.47,21.47,26.95.1.64.18,1.29.25,1.93l.27,2.32h5.9c-1.01-.86-1.66-2.13-1.66-3.56v-10.02c-1.76-1.4-2.83-3.54-2.83-5.86,0-4.13,3.35-7.49,7.49-7.49,1.5,0,2.9.44,4.07,1.2,0-.03,0-.06,0-.09,0-4.13,3.35-7.49,7.49-7.49,1.64,0,3.16.53,4.39,1.42.93-3.07,3.79-5.31,7.17-5.31s6.16,2.18,7.13,5.19c1.2-.82,2.66-1.31,4.23-1.31,4.13,0,7.49,3.35,7.49,7.49v.09c1.17-.76,2.57-1.2,4.07-1.2,4.13,0,7.49,3.35,7.49,7.49,0,2.32-1.07,4.46-2.83,5.86v10.02c0,1.42-.64,2.7-1.66,3.56h6.04l.27-2.32c.08-.65.16-1.29.25-1.93,1.86-12.48,8.07-24.42,21.47-26.95,4.47-.85,9.23-.45,13.53,1.04,3.5,1.21,7.25,3.38,9.36,6.5,7.22,10.66,4.95,29.19-9.35,32.44-4.36.99-9.78,1.21-13.36-1.83-.71,2.06-2.67,3.55-4.96,3.55h-15.39l21.46,5.75.38,1.53c3.02,11.98,7.49,23.99,13.28,34.9,7.43,14,12.32,30.73,12.25,46.62-.1,23.22-10.49,41.95-28.95,55.83-7.03,5.28-16.94,11.38-26.14,10.66-6.6-.51-11.35-4.38-14.51-9.97-3.68-6.53-5.47-16.32-5.41-23.79l.02-2.23.21-.04h0ZM299.94,468.59c.76-.42,1.52-.86,2.26-1.31,12.91-7.84,20.88-19.3,21.46-34.7.52-13.69-2.49-25.4-7.21-38.1-4.2-11.29-9.21-22.3-11.03-34.3l-.54-3.56h-8.16c1.86.61,3.21,2.36,3.21,4.43v107.53h0ZM290.62,472.82v-111.77c0-2.06,1.35-3.81,3.21-4.43h-8.47c1.86.61,3.21,2.36,3.21,4.43v112.49c.69-.23,1.38-.47,2.06-.72h0ZM259.7,356.63h-8.47c1.86.61,3.21,2.36,3.21,4.43v111.51c.68.26,1.37.51,2.06.75v-112.26c0-2.06,1.35-3.81,3.21-4.43h0ZM277.55,323.67v18.93c0,1.41-.63,2.68-1.63,3.54h5.32c-1.01-.86-1.65-2.13-1.65-3.55v-16.4c-.86-.68-1.55-1.54-2.04-2.52h0ZM287.26,346.13h5.54c-1.01-.86-1.66-2.13-1.66-3.56v-10.02c-.98-.78-1.75-1.8-2.24-2.95v12.98c0,1.42-.64,2.69-1.65,3.55h0ZM256.68,329.61c-.49,1.15-1.25,2.17-2.24,2.95v10.02c0,1.42-.64,2.7-1.66,3.56h5.57c-1.02-.86-1.67-2.14-1.67-3.57v-12.95h0ZM264.32,346.13h5.54c-1-.86-1.63-2.12-1.63-3.54v-19.36c-.49,1.15-1.25,2.17-2.24,2.95v16.38c0,1.43-.65,2.72-1.68,3.57h0ZM248.33,356.63h-7.49l-.54,3.56c-1.81,12-6.83,23.01-11.02,34.3-4.72,12.7-7.72,24.41-7.21,38.1.58,15.39,8.56,26.86,21.46,34.7.52.32,1.05.63,1.59.93v-107.16c0-2.06,1.35-3.81,3.21-4.43h0ZM208.73,337.2c1.26-.34,2.58-.5,3.77-.48,2.31.04,4.46.74,6.13,2.15-1.25-2.17-3.36-3.48-6.72-3.15-1.01.1-2.83.31-3.18,1.48h0ZM337,337.2c-.33-1.16-2.21-1.39-3.18-1.48-3.36-.32-5.47.98-6.72,3.15,1.67-1.41,3.82-2.11,6.13-2.15,1.19-.02,2.5.14,3.77.48h0Z"/>
  <path class="cls-1" d="M274.87,320.82v21.78c0,1.09-.89,1.98-1.98,1.98h0c-1.09,0-1.98-.89-1.98-1.98v-21.78c-1.67-.75-2.83-2.43-2.83-4.38,0-2.65,2.15-4.81,4.81-4.81s4.81,2.15,4.81,4.81c0,1.95-1.16,3.63-2.83,4.38h0ZM282.27,324.7v17.88c0,1.09.89,1.98,1.98,1.98s1.98-.89,1.98-1.98v-17.88c1.67-.75,2.83-2.43,2.83-4.38,0-2.65-2.15-4.81-4.81-4.81s-4.81,2.15-4.81,4.81c0,1.95,1.16,3.63,2.83,4.38h0ZM251.76,331.08v11.5c0,1.09-.89,1.98-1.98,1.98s-1.98-.89-1.98-1.98v-11.5c-1.67-.75-2.83-2.43-2.83-4.38,0-2.65,2.15-4.81,4.81-4.81s4.81,2.15,4.81,4.81c0,1.95-1.16,3.63-2.83,4.38h0ZM263.31,324.7v17.86c0,1.09-.89,1.98-1.98,1.98s-1.98-.89-1.98-1.98v-17.86c-1.67-.75-2.83-2.43-2.83-4.38,0-2.65,2.15-4.81,4.81-4.81s4.81,2.15,4.81,4.81c0,1.95-1.16,3.63-2.83,4.38h0ZM293.82,331.08v11.5c0,1.09.89,1.98,1.98,1.98h0c1.09,0,1.98-.89,1.98-1.98v-11.5c1.67-.75,2.83-2.43,2.83-4.38,0-2.65-2.15-4.81-4.81-4.81s-4.81,2.15-4.81,4.81c0,1.95,1.16,3.63,2.83,4.38h0Z"/>
  <path class="cls-1" d="M222.91,348.82h99.14c1.41,0,2.57,1.15,2.57,2.57h0c0,1.41-1.15,2.57-2.57,2.57h-99.14c-1.41,0-2.57-1.15-2.57-2.57h0c0-1.41,1.15-2.57,2.57-2.57h0Z"/>
  <path class="cls-1" d="M264.03,478.17s-43.2-7.72-44.63-45.49c-1.16-30.56,14.73-49.5,18.26-72.9l-17.83,4.78c-2.57,10.21-6.9,23.03-13.52,35.5-10.91,20.56-26.23,67.36,15.95,99.05,42.18,31.69,41.77-20.93,41.77-20.93h0ZM237.95,344.12c-.07-.61-.15-1.23-.24-1.85-4.86-32.62-33.47-27.18-39.48-18.31-6.01,8.87-4.86,25.46,7.72,28.32,12.59,2.86,14.88-5.15,12.3-9.73-2.57-4.58-9.08-3.33-11.42-1.59,0,0-3.77-7.09,4.83-7.92,7.07-.68,10.57,4.24,11.13,11.08h15.16Z"/>
  <path class="cls-1" d="M281.7,478.17s43.2-7.72,44.63-45.49c1.16-30.56-14.73-49.5-18.26-72.9l17.83,4.78c2.57,10.21,6.9,23.03,13.52,35.5,10.91,20.56,26.23,67.36-15.95,99.05-42.18,31.69-41.77-20.93-41.77-20.93h0ZM307.78,344.12c.07-.61.15-1.23.24-1.85,4.86-32.62,33.47-27.18,39.48-18.31,6.01,8.87,4.86,25.46-7.72,28.32-12.59,2.86-14.88-5.15-12.3-9.73,2.58-4.58,9.08-3.33,11.42-1.59,0,0,3.77-7.09-4.83-7.92-7.07-.68-10.57,4.24-11.13,11.08h-15.16Z"/>
  <path class="cls-1" d="M249.78,359.08c1.09,0,1.98.89,1.98,1.98v113.31c-1.27-.52-2.59-1.11-3.95-1.76v-111.54c0-1.09.89-1.98,1.98-1.98h0ZM261.16,359.08c1.09,0,1.98.89,1.98,1.98v116.94c-.83-.18-2.2-.51-3.95-1.02v-115.91c0-1.09.89-1.98,1.98-1.98h0ZM295.28,359.08h0c1.09,0,1.98.89,1.98,1.98v111.86c-1.36.64-2.69,1.21-3.95,1.72v-113.58c0-1.09.89-1.98,1.98-1.98h0ZM283.9,359.08c1.09,0,1.98.89,1.98,1.98v116.11c-2.01.57-3.42.86-3.94.97,0-.06,0-.12,0-.19v-116.89c0-1.09.89-1.98,1.98-1.98h0ZM272.53,359.08c1.09,0,1.98.89,1.98,1.98v116.89c0,1.09-.89,1.98-1.98,1.98s-1.98-.89-1.98-1.98v-116.89c0-1.09.89-1.98,1.98-1.98h0Z"/>
  <path class="cls-2" d="M274.45,466.01c-13,15.12-35.39,20.24-54.36,15.94-.3,34.35,21.28,70.66,54.36,82.55,33-12.81,54.67-47.3,54.36-82.55-19.05,4.32-41.28-.82-54.36-15.94h0Z"/>
  <path class="cls-1" d="M319.69,491.98s-25.89,3.89-40.61-11.43c0,0-8.02,15.93-4.38,42.55,3.65,26.62,23.71,15.56,28.2,8.63,4.5-6.93,10.46-13.86,16.78-39.75h0ZM299.89,530.49s-5.48-10.59-19.57-5.87c-1.5-2.81,15.67-16.97,19.57,5.87h0ZM300.54,501.3s9.87,4.28,8.44,15.07c0,0-11.9-2.63-8.44-15.07h0ZM278.52,508.98s9.66,1.66,14.92-9.45c0,0-12.36-2.55-14.92,9.45h0Z"/>
  <path class="cls-1" d="M226.6,491.98s25.89,3.89,40.61-11.43c0,0,8.02,15.93,4.38,42.55-3.65,26.62-23.71,15.56-28.2,8.63-4.5-6.93-10.46-13.86-16.78-39.75h0ZM265.02,516.91s-5.96,10.33-19.82,4.98c.73,4.13,19.09,20.3,19.82-4.98h0ZM249.57,510.29s-5.34-9.67-16.16-8.46c0,0,3.65,11.67,16.16,8.46h0ZM256.75,507.91s-1.95-9.6,9-15.2c0,0,2.92,12.28-9,15.2h0Z"/>
  <polygon class="cls-5" points="186.84 558.27 364.2 558.27 364.2 602.49 186.84 602.49 186.84 558.27 186.84 558.27"/>
  <path class="cls-3" d="M186.84,566.85c13.81-17.11,58.88,2.43,88.66,2.42,29.78,0,73.05-18.94,88.69-2.42v-17.8c-16.25-16.27-51.36-.3-88.69-.3s-75.25-15.17-88.66.92v17.18h0Z"/>
  <path class="cls-4" d="M345.52,602.49h20.04v29.08c-3.1,2.59-8.09,4.94-12.45,6.14-7.85,2.17-7.59,0-7.59-7.78,1.5-15.4,1.18-22.81,0-27.45h0Z"/>
  <path class="cls-4" d="M204.88,602.49h-20.04v29.08c3.1,2.59,8.09,4.94,12.45,6.14,7.85,2.17,7.59,0,7.59-7.78-1.5-15.4-1.18-22.81,0-27.45h0Z"/>
  <path class="cls-1" d="M186.84,591.12c13.81-17.11,34.87,4.37,88.66,4.37,53.79,0,73.05-20.89,88.69-4.37v-21.04c-15.64-16.52-58.91,2.42-88.69,2.42-29.78,0-74.85-19.53-88.66-2.42v21.04h0Z"/>
  <path class="cls-6" d="M186.84,613.72c13.81-17.11,34.87,9.24,88.66,9.23,53.79,0,73.05-25.75,88.69-9.23v-18.96c-15.64-16.52-34.91,4.36-88.69,4.37-53.79,0-74.85-21.47-88.66-4.37v18.96h0Z"/>
  <path class="cls-5" d="M364.2,585.42c31.69-19.79,52.72-18,64.3-5.04v25.32l-64.3,9.25v-29.53h0Z"/>
  <path class="cls-3" d="M428.5,580.65c-16.7-8.29-42.87,5.53-64.3,8.29v-13.8c21.43-1.07,51.81-13.19,64.3-3.21v8.71h0Z"/>
  <path class="cls-1" d="M428.5,598.28c-3.01-13.38-43.92,7.92-64.3,11.21v-18.6c21.43-2.76,47.6-16.58,64.3-8.29v15.68h0Z"/>
  <path class="cls-6" d="M428.5,611.18c-4.78-15.08-51.39,22.28-71.78,25.57-5.85,1.51-3.83-1.32-2.52-2.64,4.44-4.47,9.56-10.97,9.99-22.68,20.38-3.29,61.29-24.59,64.3-11.21v10.96h0Z"/>
  <path class="cls-5" d="M186.84,585.42c-31.69-19.79-52.72-18-64.3-5.04v25.32l64.3,9.25v-29.53h0Z"/>
  <path class="cls-6" d="M122.54,611.18c4.78-15.08,51.39,22.28,71.78,25.57,5.85,1.51,3.83-1.32,2.52-2.64-4.44-4.47-9.56-10.97-9.99-22.68-20.38-3.29-61.29-24.59-64.3-11.21v10.96h0Z"/>
  <path class="cls-3" d="M122.54,580.65c16.7-8.29,42.87,5.53,64.3,8.29v-13.8c-21.43-1.07-51.81-13.19-64.3-3.21v8.71h0Z"/>
  <path class="cls-1" d="M122.54,598.28c3.01-13.38,43.92,7.92,64.3,11.21v-18.6c-21.43-2.76-47.6-16.58-64.3-8.29v15.68h0Z"/>
  <path class="cls-5" d="M428.5,591.35c13.32-2.17,26.63-4.33,39.94-6.5v16.37c-16.64,8.63-30.28,11.42-39.94,6.5v-16.37h0Z"/>
  <path class="cls-3" d="M428.5,580.65c9.81,4.34,24.01,3.78,39.94,1.23v4.75c-18.26,8.42-30.48,8.05-39.94,5.27v-11.26h0Z"/>
  <path class="cls-1" d="M468.44,587.61v8.47c-21.47,14.6-30.48,11.94-39.94,9.16v-12.36c9.46,2.78,21.68,3.15,39.94-5.27h0Z"/>
  <path class="cls-6" d="M468.44,597.05v4.48c-16.72,21.78-32.36,17.47-39.94,14.03v-9.35c9.46,2.78,18.48,5.44,39.94-9.16h0Z"/>
  <path class="cls-5" d="M122.55,591.35c-13.31-2.17-26.63-4.33-39.94-6.5v16.37c16.64,8.63,30.28,11.42,39.94,6.5v-16.37h0Z"/>
  <path class="cls-3" d="M122.55,580.65c-9.81,4.34-24.01,3.78-39.94,1.23v4.75c18.26,8.42,30.48,8.05,39.94,5.27v-11.26h0Z"/>
  <path class="cls-1" d="M82.6,587.61v8.47c21.47,14.6,30.48,11.94,39.94,9.16v-12.36c-9.46,2.78-21.68,3.15-39.94-5.27h0Z"/>
  <path class="cls-6" d="M82.6,597.05v4.48c16.72,21.78,32.36,17.47,39.94,14.03v-9.35c-9.46,2.78-18.48,5.44-39.94-9.16h0Z"/>
</svg>